<svg id="laptop" xmlns="http://www.w3.org/2000/svg" width="13.343" height="10.257" viewBox="0 0 13.343 10.257">
  <g id="Group_46" data-name="Group 46" transform="translate(0 0)">
    <g id="Group_45" data-name="Group 45">
      <path id="Path_38" data-name="Path 38" d="M13.342,68.5s0,0,0-.006a.191.191,0,0,0,0-.023v0a.19.19,0,0,0-.006-.02l0-.005-.007-.017v0l-1.045-2.062V59.579A.379.379,0,0,0,11.9,59.2H1.445a.379.379,0,0,0-.378.378v6.783L.021,68.424v0l-.007.017,0,.005A.2.2,0,0,0,0,68.47v0a.192.192,0,0,0,0,.023s0,0,0,.006,0,.008,0,.012v.5a.45.45,0,0,0,.449.449H12.893a.45.45,0,0,0,.449-.449v-.5S13.342,68.5,13.342,68.5ZM1.457,59.592H11.885v6.622H1.457ZM1.382,66.6H11.96l.868,1.713H8.535l-.216-.781a.369.369,0,0,0-.355-.27H5.378a.369.369,0,0,0-.355.27l-.216.782H.514Zm6.747,1.713H5.213l.182-.661H7.947Zm4.822.691a.059.059,0,0,1-.058.058H.449a.059.059,0,0,1-.058-.058v-.3H12.951Z" transform="translate(0 -59.201)" fill="#333"/>
    </g>
  </g>
  <g id="Group_48" data-name="Group 48" transform="translate(1.874 4.028)">
    <g id="Group_47" data-name="Group 47">
      <path id="Path_39" data-name="Path 39" d="M81.321,213.756a.2.2,0,0,0-.2.2v1.982H72.314v-1.982a.2.2,0,0,0-.391,0v2.066a.307.307,0,0,0,.306.306H81.21a.307.307,0,0,0,.306-.306v-2.066A.2.2,0,0,0,81.321,213.756Z" transform="translate(-71.923 -213.756)" fill="#333"/>
    </g>
  </g>
  <g id="Group_50" data-name="Group 50" transform="translate(1.874 0.808)">
    <g id="Group_49" data-name="Group 49">
      <path id="Path_40" data-name="Path 40" d="M81.21,90.2H72.229a.307.307,0,0,0-.306.306v2.066a.2.2,0,1,0,.391,0V90.594h8.812v1.982a.2.2,0,1,0,.391,0V90.509A.307.307,0,0,0,81.21,90.2Z" transform="translate(-71.923 -90.203)" fill="#333"/>
    </g>
  </g>
</svg>
