<svg height="480pt" viewBox="0 0 480 480" width="480pt" xmlns="http://www.w3.org/2000/svg"><path d="m472 8h-24c0-4.417969-3.582031-8-8-8h-80c-4.417969 0-8 3.582031-8 8v16h-240c-57.4375 0-104 46.5625-104 104s46.5625 104 104 104v80c.027344 22.082031 17.917969 39.972656 40 40h176c19-.023438 35.371094-13.386719 39.199219-32h24.800781c22.089844 0 40 17.910156 40 40s-17.910156 40-40 40h-240c0-4.417969-3.582031-8-8-8h-5.167969c-16.40625-.03125-32.582031-3.863281-47.257812-11.199219-16.902344-8.40625-35.519531-12.785156-54.398438-12.800781h-5.175781c-4.417969 0-8 3.582031-8 8v8h-24v16h24v16h-24v16h24v16h-24v16h24v8c0 4.417969 3.582031 8 8 8h5.167969c18.878906-.015625 37.496093-4.394531 54.398437-12.800781 14.679688-7.335938 30.855469-11.171875 47.265625-11.199219h5.167969c4.417969 0 8-3.582031 8-8h240c48.601562 0 88-39.398438 88-88s-39.398438-88-88-88h-24v-136c-.027344-22.082031-17.917969-39.972656-40-40h-176c-22.082031.027344-39.972656 17.917969-40 40v80c-48.601562 0-88-39.398438-88-88s39.398438-88 88-88h240v16c0 4.417969 3.582031 8 8 8h80c4.417969 0 8-3.582031 8-8h24c4.417969 0 8-3.582031 8-8v-32c0-4.417969-3.582031-8-8-8zm-144 328h-8v-72c0-4.417969 3.582031-8 8-8h24v56c0 13.253906-10.746094 24-24 24zm-192 104c-17.921875.4375-35.527344 4.808594-51.574219 12.800781-13.820312 6.917969-28.980469 10.742188-44.425781 11.199219v-79.921875c15.441406.433594 30.601562 4.230469 44.425781 11.121094 16.046875 7.992187 33.652344 12.363281 51.574219 12.800781zm256-152c39.765625 0 72 32.234375 72 72s-32.234375 72-72 72h-240v-16h240c30.929688 0 56-25.070312 56-56s-25.070312-56-56-56h-24v-16zm-264-152c0-13.253906 10.746094-24 24-24h176c13.253906 0 24 10.746094 24 24v104h-24c-13.253906 0-24 10.746094-24 24v72h-152c-13.253906 0-24-10.746094-24-24zm240-88v-32h64v32zm96-8h-16v-16h16zm0 0"/><path d="m240 272c26.507812 0 48-21.492188 48-48s-21.492188-48-48-48-48 21.492188-48 48c.027344 26.5 21.5 47.972656 48 48zm0-80c17.671875 0 32 14.328125 32 32s-14.328125 32-32 32-32-14.328125-32-32 14.328125-32 32-32zm0 0"/></svg>