<svg xmlns="http://www.w3.org/2000/svg" width="14.09" height="9.863" viewBox="0 0 14.09 9.863">
  <g id="desktop-computer" transform="translate(-2 -2)">
    <path id="Path_96" data-name="Path 96" d="M41.4,2H38.114a.7.7,0,0,0-.7.7v8.689H36v.47h6.106V2.7A.7.7,0,0,0,41.4,2Zm.235,9.394H37.879V2.7a.235.235,0,0,1,.235-.235H41.4a.235.235,0,0,1,.235.235Z" transform="translate(-26.015)" fill="#333"/>
    <path id="Path_97" data-name="Path 97" d="M5.1,14.454H4.348v.47H8.576v-.47H7.82l-.352-1.409h2.752a.7.7,0,0,0,.7-.7V6.7a.7.7,0,0,0-.7-.7H2.7a.7.7,0,0,0-.7.7v5.636a.7.7,0,0,0,.7.7H5.457Zm2.231,0H5.589l.352-1.409H6.983Zm3.119-3.288H2.47V7.409h7.985ZM2.47,6.7A.235.235,0,0,1,2.7,6.47h7.515a.235.235,0,0,1,.235.235v.235H2.47ZM2.7,12.576a.235.235,0,0,1-.235-.235v-.7h7.985v.7a.235.235,0,0,1-.235.235Z" transform="translate(0 -3.061)" fill="#333"/>
    <path id="Path_100" data-name="Path 100" d="M46,7.409h2.818V6H46Zm.47-.939h1.879v.47H46.47Z" transform="translate(-33.667 -3.061)" fill="#333"/>
    <rect id="Rectangle_100" data-name="Rectangle 100" width="0.47" height="0.47" transform="translate(13.507 4.818)" fill="#333"/>
    <rect id="Rectangle_101" data-name="Rectangle 101" width="0.47" height="0.47" transform="translate(13.507 5.757)" fill="#333"/>
  </g>
</svg>
