<svg id="hard-disk" xmlns="http://www.w3.org/2000/svg" width="9.442" height="11.649" viewBox="0 0 9.442 11.649">
  <g id="Group_32" data-name="Group 32" transform="translate(0 1.283)">
    <g id="Group_31" data-name="Group 31">
      <path id="Path_32" data-name="Path 32" d="M57.772,65.849a.171.171,0,0,0-.171.171V66.4h-8.76V56.546a.171.171,0,0,0-.341,0V66.571a.171.171,0,0,0,.171.171h9.1a.171.171,0,0,0,.171-.171v-.552A.171.171,0,0,0,57.772,65.849Z" transform="translate(-48.5 -56.375)" fill="#333"/>
    </g>
  </g>
  <g id="Group_34" data-name="Group 34" transform="translate(0)">
    <g id="Group_33" data-name="Group 33">
      <path id="Path_33" data-name="Path 33" d="M57.772,0h-9.1A.171.171,0,0,0,48.5.171V.72a.171.171,0,0,0,.341,0V.341H57.6V10.19a.171.171,0,0,0,.341,0V.171A.171.171,0,0,0,57.772,0Z" transform="translate(-48.5)" fill="#333"/>
    </g>
  </g>
  <g id="Group_36" data-name="Group 36" transform="translate(0.683 0.683)">
    <g id="Group_35" data-name="Group 35">
      <path id="Path_34" data-name="Path 34" d="M86.578,37.75a.353.353,0,0,0-.6-.249l-.4.4-.172-.268,1.112-1.112a.171.171,0,0,0,.05-.12l.007-6.22c0-.007,0,0,0-.007s0,0,0,0,0-.008,0-.012,0-.008,0-.012v0s0-.009,0-.014v0l0-.014v0l-.006-.013v0l-.007-.011,0,0-.007-.01,0,0-.01-.012h0l-.012-.011,0,0-.011-.008,0,0-.012-.007h0l-.013-.006h0l-.015-.005h0l-.015,0h0l-.013,0h-1.7a.171.171,0,1,0,0,.341h.086v.046a1.264,1.264,0,0,0,1.263,1.263h.157l0,4.677L85.22,37.336l-.273-.425a3.465,3.465,0,1,0-.869.613l.3.656-.615.616a.171.171,0,0,0-.05.121v1.027H81.063l-2.222-2.222V31.65H79a1.264,1.264,0,0,0,1.263-1.263v-.046H84A.171.171,0,0,0,84,30h-5.33a.171.171,0,0,0-.171.171v7.621a.171.171,0,0,0,.05.121l2.322,2.322a.171.171,0,0,0,.121.05h2.889a.171.171,0,0,0,.171-.171V38.987l.475-.475.138.3L84.48,39a.4.4,0,0,0-.116.283l0,.6a.4.4,0,0,0,.4.4h1.374a.444.444,0,0,0,.444-.444Zm-.5-6.442a.923.923,0,0,1-.921-.921v-.046h1.08v.967Zm-7.236-.967h1.08v.046a.923.923,0,0,1-.921.921h-.158Zm4.844,5.769.094.655a1.032,1.032,0,0,0,.082.28l.076.168a3.132,3.132,0,1,1,.822-.6l-.029-.045a1.032,1.032,0,0,0-.191-.221l-.5-.435a.216.216,0,0,0-.356.194Zm.487.794a.69.69,0,0,1-.055-.188l-.046-.321.245.213a.691.691,0,0,1,.128.148l1.307,2.038.028.045a.332.332,0,0,1-.583.317l-.022-.047-.146-.322h0Zm2.038,3.007a.1.1,0,0,1-.072.03H84.764a.057.057,0,0,1-.057-.057l0-.6a.055.055,0,0,1,.017-.04l.1-.1.048.105.025.054,0,.009a.669.669,0,0,0,.4.324.676.676,0,0,0,.192.028.673.673,0,0,0,.59-.995l-.005-.009-.032-.052-.269-.42.448-.449a.011.011,0,0,1,.019.008l0,2.088A.1.1,0,0,1,86.21,39.911Z" transform="translate(-78.5 -30)" fill="#333"/>
    </g>
  </g>
  <g id="Group_38" data-name="Group 38" transform="translate(3.185 3.561)">
    <g id="Group_37" data-name="Group 37">
      <path id="Path_35" data-name="Path 35" d="M190.036,156.5a1.536,1.536,0,1,0,1.536,1.536A1.538,1.538,0,0,0,190.036,156.5Zm0,2.73a1.194,1.194,0,1,1,1.195-1.195A1.2,1.2,0,0,1,190.036,159.23Z" transform="translate(-188.5 -156.5)" fill="#333"/>
    </g>
  </g>
  <g id="Group_40" data-name="Group 40" transform="translate(4.095 4.471)">
    <g id="Group_39" data-name="Group 39">
      <path id="Path_36" data-name="Path 36" d="M229.126,196.5a.626.626,0,1,0,.626.626A.626.626,0,0,0,229.126,196.5Zm0,.91a.284.284,0,1,1,.284-.284A.285.285,0,0,1,229.126,197.41Z" transform="translate(-228.5 -196.5)" fill="#333"/>
    </g>
  </g>
  <g id="Group_42" data-name="Group 42" transform="translate(0.751 9.909)">
    <g id="Group_41" data-name="Group 41">
      <path id="Path_37" data-name="Path 37" d="M82.012,435.5a.512.512,0,1,0,.512.512A.513.513,0,0,0,82.012,435.5Zm0,.683a.171.171,0,1,1,.171-.171A.171.171,0,0,1,82.012,436.183Z" transform="translate(-81.5 -435.5)" fill="#333"/>
    </g>
  </g>
  <g id="Group_44" data-name="Group 44" transform="translate(7.514 9.512)">
    <g id="Group_43" data-name="Group 43">
      <ellipse id="Ellipse_1" data-name="Ellipse 1" cx="0.171" cy="0.171" rx="0.171" ry="0.171" fill="#333"/>
    </g>
  </g>
</svg>
