<svg id="headset_1_" data-name="headset (1)" xmlns="http://www.w3.org/2000/svg" width="10.078" height="10.078" viewBox="0 0 10.078 10.078">
  <g id="Group_90" data-name="Group 90" transform="translate(0 0)">
    <g id="Group_89" data-name="Group 89" transform="translate(0 0)">
      <path id="Path_101" data-name="Path 101" d="M2.362,4H1.584A3.465,3.465,0,0,1,8.289,3.05a.394.394,0,0,0,.738-.273A4.252,4.252,0,0,0,.788,4.207,1.575,1.575,0,0,0,0,5.571V6.909A1.576,1.576,0,0,0,1.575,8.484h.787a.394.394,0,0,0,.394-.394v-3.7A.394.394,0,0,0,2.362,4ZM1.968,7.7H1.575a.788.788,0,0,1-.787-.787V5.571a.788.788,0,0,1,.787-.787h.394Z" transform="translate(0 0)" fill="#333"/>
      <path id="Path_102" data-name="Path 102" d="M220.252,203h-.787a.394.394,0,0,0-.394.394v4.114a.394.394,0,0,1-.394.394h-1.2v.012a.787.787,0,1,0,0,.762v.012h1.2a1.182,1.182,0,0,0,1.181-1.181v-.02h.394a1.576,1.576,0,0,0,1.575-1.575v-1.338A1.576,1.576,0,0,0,220.252,203Zm.787,2.913a.788.788,0,0,1-.787.787h-.394v-2.913h.394a.788.788,0,0,1,.787.787Z" transform="translate(-211.748 -199.004)" fill="#333"/>
    </g>
  </g>
</svg>
