<svg id="adapter" xmlns="http://www.w3.org/2000/svg" width="9.592" height="10.913" viewBox="0 0 9.592 10.913">
  <path id="Path_71" data-name="Path 71" d="M8.313,6.469V1.6A1.6,1.6,0,0,0,6.448.022,1.649,1.649,0,0,0,5.116,1.667V8.995a1.279,1.279,0,0,1-2.558,0V8.3A.961.961,0,0,0,3.2,7.4V6.86A2.241,2.241,0,0,0,4.476,4.838V2.281a.32.32,0,0,0-.32-.32h-.32V.32A.32.32,0,0,0,3.517,0H.959a.32.32,0,0,0-.32.32V1.961H.32a.32.32,0,0,0-.32.32V4.838A2.241,2.241,0,0,0,1.279,6.86V7.4a.961.961,0,0,0,.639.9v.694a1.918,1.918,0,0,0,3.837,0V1.667a1.006,1.006,0,0,1,.8-1.014A.96.96,0,0,1,7.673,1.6V6.469A1.6,1.6,0,0,0,6.394,8.036V9.315a.32.32,0,0,0,.32.32h.32v.959a.32.32,0,0,0,.32.32H8.633a.32.32,0,0,0,.32-.32V9.634h.32a.32.32,0,0,0,.32-.32V8.036A1.6,1.6,0,0,0,8.313,6.469ZM3.2,1.961H2.558V.639H3.2ZM1.279.639h.639V1.961H1.279Zm-.639,4.2V2.6h3.2V4.838a1.6,1.6,0,0,1-3.2,0Zm1.6,2.238a2.25,2.25,0,0,0,.32-.023V7.4a.32.32,0,1,1-.639,0V7.054A2.25,2.25,0,0,0,2.238,7.077Zm6.075,3.2H7.673V9.634h.639Zm.639-1.279H7.034V8.036a.959.959,0,1,1,1.918,0Zm0,0" fill="#333"/>
  <path id="Path_72" data-name="Path 72" d="M60.32,152.639H61.6a.32.32,0,1,0,0-.639H60.32a.32.32,0,1,0,0,.639Zm0,0" transform="translate(-58.721 -148.76)" fill="#333"/>
  <path id="Path_73" data-name="Path 73" d="M61.918,212.32a.32.32,0,0,0-.32-.32H60.32a.32.32,0,0,0,0,.639H61.6A.32.32,0,0,0,61.918,212.32Zm0,0" transform="translate(-58.721 -207.481)" fill="#333"/>
</svg>
