<svg id="flash-drive" xmlns="http://www.w3.org/2000/svg" width="11.135" height="11.135" viewBox="0 0 11.135 11.135">
  <g id="Group_52" data-name="Group 52" transform="translate(0 0)">
    <g id="Group_51" data-name="Group 51">
      <path id="Path_41" data-name="Path 41" d="M11.061,3.111,8.024.074a.253.253,0,0,0-.358,0l-2.1,2.1L5.493,2.1a.253.253,0,0,0-.358,0L.79,6.444A2.68,2.68,0,0,0,0,8.351a2.787,2.787,0,0,0,2.784,2.784,2.715,2.715,0,0,0,1.907-.79L9.036,6a.253.253,0,0,0,0-.358l-.074-.074,2.1-2.1A.253.253,0,0,0,11.061,3.111ZM4.333,9.987a2.206,2.206,0,0,1-1.549.642A2.28,2.28,0,0,1,.506,8.351,2.176,2.176,0,0,1,1.148,6.8L5.314,2.635,8.5,5.82ZM8.6,5.209,5.925,2.53,7.845.611,10.524,3.29Z" transform="translate(0 0)" fill="#333"/>
      <path id="Path_42" data-name="Path 42" d="M288.075,64.385a.253.253,0,0,0,0,.354l.253.253a.253.253,0,0,0,.358,0l.759-.759a.253.253,0,0,0,0-.358l-.253-.253a.255.255,0,0,0-.085-.057C288.933,63.494,288.933,63.492,288.075,64.385Z" transform="translate(-281.172 -62.03)" fill="#333"/>
      <path id="Path_43" data-name="Path 43" d="M341.433,118.094l.253.253a.253.253,0,0,0,.358,0l.759-.759a.253.253,0,0,0,0-.358l-.253-.253a.255.255,0,0,0-.085-.057c-.177-.072-.178-.074-1.035.82A.253.253,0,0,0,341.433,118.094Z" transform="translate(-333.26 -114.119)" fill="#333"/>
      <path id="Path_44" data-name="Path 44" d="M109.267,210.66a.254.254,0,0,0,.067.237h0l-1.5,1.5-.13-.389a.25.25,0,0,1,.061-.259l.191-.192a.511.511,0,0,0,.124.024.506.506,0,1,0-.358-.864.5.5,0,0,0-.124.482l-.191.191a.755.755,0,0,0-.184.777l.21.629-.123.123a.5.5,0,0,0-.482.124.506.506,0,0,0,.716.716.5.5,0,0,0,.124-.482l.482-.481.628.209a.754.754,0,0,0,.777-.183l.137-.137h0a.253.253,0,0,0,.358,0l.358-.358a.253.253,0,0,0,0-.358l-.358-.358a.253.253,0,0,0-.358,0l-.358.358a.254.254,0,0,0,0,.358h0l-.137.137a.253.253,0,0,1-.259.061l-.388-.129,1.142-1.142h0a.253.253,0,0,0,.179.074.259.259,0,0,0,.058-.007.254.254,0,0,0,.182-.166l.179-.537a.253.253,0,0,0-.32-.32l-.537.179A.253.253,0,0,0,109.267,210.66Zm-1.185.416.179.179-.178-.178h0Zm-.895,2.327h0l.178.178Z" transform="translate(-104.15 -205.297)" fill="#333"/>
    </g>
  </g>
</svg>
