<svg id="sd-card" xmlns="http://www.w3.org/2000/svg" width="9.343" height="11.795" viewBox="0 0 9.343 11.795">
  <path id="Path_66" data-name="Path 66" d="M62.2,113.022a.173.173,0,0,0-.173.173v1.512h-.431a.173.173,0,0,0-.173.173v2.951a.173.173,0,0,0,.173.173h.431v3.563a.289.289,0,0,1-.289.289H53.664a.289.289,0,0,1-.289-.289v-.914a.173.173,0,0,0-.347,0v.914a.636.636,0,0,0,.636.636h8.072a.636.636,0,0,0,.636-.636v-3.736a.173.173,0,0,0-.173-.173h-.431v-1.08h.19a.416.416,0,0,0,.415-.415v-.555a.416.416,0,0,0-.415-.415h-.19v-.139H62.2a.173.173,0,0,0,.173-.173V113.2A.173.173,0,0,0,62.2,113.022Zm-.242,2.518a.068.068,0,0,1,.068.068v.555a.068.068,0,0,1-.068.068h-.19v-.692Z" transform="translate(-53.028 -110.409)" fill="#333"/>
  <path id="Path_67" data-name="Path 67" d="M61.734,0H55.661a.819.819,0,0,0-.583.241l-1.81,1.81a.819.819,0,0,0-.241.583V4.472a.173.173,0,0,0,.173.173h.431V5.912H53.2a.173.173,0,0,0-.173.173V9.551a.173.173,0,0,0,.347,0V6.259h.431a.173.173,0,0,0,.173-.173V4.472a.173.173,0,0,0-.173-.173h-.431V2.634a.474.474,0,0,1,.14-.338l1.81-1.81a.474.474,0,0,1,.338-.14h6.074a.289.289,0,0,1,.289.289V2.093a.173.173,0,0,0,.347,0V.636A.636.636,0,0,0,61.734,0Z" transform="translate(-53.027)" fill="#333"/>
  <path id="Path_68" data-name="Path 68" d="M109.859,82.39h-.244a.468.468,0,0,0-.467.467V83.91a.468.468,0,0,0,.467.467h.244a.468.468,0,0,0,.467-.467V82.857A.468.468,0,0,0,109.859,82.39Zm.121,1.52a.121.121,0,0,1-.121.121h-.244a.121.121,0,0,1-.121-.121V82.857a.121.121,0,0,1,.121-.121h.244a.121.121,0,0,1,.121.121Z" transform="translate(-107.85 -80.485)" fill="#333"/>
  <path id="Path_69" data-name="Path 69" d="M177.229,45.6a.468.468,0,0,0,.467-.467V44a.468.468,0,0,0-.467-.467H172.9a.468.468,0,0,0-.467.467v1.131a.468.468,0,0,0,.467.467Zm-1.861-.347h-.6V43.884h.6Zm.347-1.372h.6v1.372h-.6Zm-1.3,1.372h-.6V43.884h.6ZM177.349,44v1.131a.121.121,0,0,1-.121.121h-.565V43.884h.565A.121.121,0,0,1,177.349,44Zm-4.566,1.131V44a.121.121,0,0,1,.121-.121h.565v1.372H172.9A.121.121,0,0,1,172.784,45.135Z" transform="translate(-169.676 -42.53)" fill="#333"/>
  <path id="Path_70" data-name="Path 70" d="M109.586,283.251v3.079a.637.637,0,0,0,.636.636h5.441a.637.637,0,0,0,.636-.636V284.79a.173.173,0,1,0-.347,0v1.539a.289.289,0,0,1-.289.289h-5.441a.289.289,0,0,1-.289-.289v-3.079a.289.289,0,0,1,.289-.289h5.441a.289.289,0,0,1,.289.289v.846a.173.173,0,1,0,.347,0v-.846a.636.636,0,0,0-.636-.636h-5.441A.636.636,0,0,0,109.586,283.251Z" transform="translate(-108.278 -276.081)" fill="#333"/>
</svg>
