<svg xmlns="http://www.w3.org/2000/svg" width="6.843" height="10.606" viewBox="0 0 6.843 10.606">
  <g id="noun_ups_1270877" transform="translate(-12 -1)">
    <g id="Group_56" data-name="Group 56" transform="translate(12 1)">
      <path id="Path_93" data-name="Path 93" d="M18.843,1H12v9.922h.342v.684h1.2v-.684H17.3v.684h1.2v-.684h.342Zm-5.474.342h4.106V6.816a2.053,2.053,0,0,1-4.106,0ZM13.2,11.264h-.513v-.342H13.2Zm3.763-.684v-.342h-.342v.342h-.342v-.342h-.342v.342h-.342v-.342H15.25v.342h-.342v-.342h-.342v.342h-.342v-.342h-.342v.342H13.54V9.9H17.3v.684Zm1.2.684h-.513v-.342h.513Zm.342-.684h-.855V9.553H13.2V10.58h-.855V1.342h.684V6.816a2.395,2.395,0,0,0,4.79,0V1.342H18.5Z" transform="translate(-12 -1)" fill="#333"/>
      <path id="Path_94" data-name="Path 94" d="M27.026,31.053A1.026,1.026,0,1,0,26,30.026,1.027,1.027,0,0,0,27.026,31.053Zm0-1.711a.684.684,0,1,1-.684.684A.685.685,0,0,1,27.026,29.342Z" transform="translate(-23.605 -24.21)" fill="#333"/>
      <rect id="Rectangle_53" data-name="Rectangle 53" width="1.369" height="0.342" transform="translate(2.737 3.763)" fill="#333"/>
      <rect id="Rectangle_54" data-name="Rectangle 54" width="1.369" height="0.342" transform="translate(2.737 2.737)" fill="#333"/>
      <rect id="Rectangle_55" data-name="Rectangle 55" width="1.369" height="0.342" transform="translate(2.737 1.711)" fill="#333"/>
    </g>
  </g>
</svg>
