<svg id="router" xmlns="http://www.w3.org/2000/svg" width="10.343" height="8.404" viewBox="0 0 10.343 8.404">
  <path id="Path_84" data-name="Path 84" d="M9.214,5.171H9.05V.323a.323.323,0,0,0-.646,0V5.171H1.939V.323a.323.323,0,1,0-.646,0V5.171H1.129A1.13,1.13,0,0,0,0,6.3v.975A1.13,1.13,0,0,0,1.129,8.4H9.214a1.13,1.13,0,0,0,1.129-1.129V6.3A1.13,1.13,0,0,0,9.214,5.171Zm.482,2.1a.483.483,0,0,1-.482.482H1.129a.483.483,0,0,1-.482-.482V6.3a.483.483,0,0,1,.482-.482H9.214A.483.483,0,0,1,9.7,6.3v.975Zm0,0" fill="#333"/>
  <path id="Path_85" data-name="Path 85" d="M64.97,320h-.646a.323.323,0,1,0,0,.646h.646a.323.323,0,0,0,0-.646Zm0,0" transform="translate(-62.707 -313.536)" fill="#333"/>
  <path id="Path_86" data-name="Path 86" d="M416.446,320.11a.33.33,0,0,0-.352.068.34.34,0,0,0-.094.23.325.325,0,0,0,.094.229.319.319,0,0,0,.352.068.373.373,0,0,0,.107-.068.326.326,0,0,0,.094-.229.34.34,0,0,0-.094-.229A.3.3,0,0,0,416.446,320.11Zm0,0" transform="translate(-407.596 -313.62)" fill="#333"/>
  <path id="Path_87" data-name="Path 87" d="M160.97,320h-.646a.323.323,0,1,0,0,.646h.646a.323.323,0,0,0,0-.646Zm0,0" transform="translate(-156.768 -313.536)" fill="#333"/>
  <path id="Path_88" data-name="Path 88" d="M225.293,168.646a.646.646,0,1,1-.646-.646A.646.646,0,0,1,225.293,168.646Zm0,0" transform="translate(-219.475 -164.606)" fill="#333"/>
  <path id="Path_89" data-name="Path 89" d="M176.657,113.535a.323.323,0,0,1-.3-.2,1.132,1.132,0,0,0-2.085,0,.323.323,0,0,1-.6-.252,1.778,1.778,0,0,1,3.276,0,.323.323,0,0,1-.3.449Zm0,0" transform="translate(-170.145 -109.738)" fill="#333"/>
  <path id="Path_90" data-name="Path 90" d="M135.635,66.06a.323.323,0,0,1-.294-.188,2.1,2.1,0,0,0-3.82,0,.323.323,0,0,1-.587-.27,2.748,2.748,0,0,1,4.995,0,.324.324,0,0,1-.294.458Zm0,0" transform="translate(-128.26 -62.707)" fill="#333"/>
</svg>
