<svg id="printer" xmlns="http://www.w3.org/2000/svg" width="11.921" height="11.921" viewBox="0 0 11.921 11.921">
  <g id="_004---Printer" data-name="004---Printer" transform="translate(0 0)">
    <path id="Shape" d="M11.907,4.7s0-.01,0-.014a.2.2,0,0,0-.034-.053l-1.691-1.86a1.2,1.2,0,0,0-.882-.39H8.345V.4a.4.4,0,0,0-.4-.4H3.974a.4.4,0,0,0-.4.4V2.384H2.625a1.2,1.2,0,0,0-.882.39L.052,4.635a.2.2,0,0,0-.034.053s0,.009,0,.014A.191.191,0,0,0,0,4.758s0,.007,0,.011V8.543A1.193,1.193,0,0,0,1.192,9.735H2.583l-.715.954a.4.4,0,0,0,.318.636H3.34l-.015.034a.4.4,0,0,0,.362.562H8.235a.4.4,0,0,0,.362-.562l-.016-.034H9.735a.4.4,0,0,0,.318-.636l-.715-.954h1.391a1.193,1.193,0,0,0,1.192-1.192V4.768s0-.007,0-.011A.191.191,0,0,0,11.907,4.7ZM3.974.4H7.947V3.576H3.974ZM2.037,3.042a.8.8,0,0,1,.588-.26h.951v.795h-.2a.2.2,0,1,0,0,.4H8.543a.2.2,0,1,0,0-.4h-.2V2.782H9.3a.8.8,0,0,1,.588.26L11.273,4.57H.648Zm6.9,6.164-.4-.53V8.345a.6.6,0,0,0-.6-.6H3.974a.6.6,0,0,0-.6.6v.331l-.4.53V7.749A1.392,1.392,0,0,1,4.371,6.358H7.55A1.392,1.392,0,0,1,8.941,7.749Zm-.795-.662H3.775v-.2a.2.2,0,0,1,.2-.2H7.947a.2.2,0,0,1,.2.2Zm-4.46,2.98L4.5,9.735H7.422l.814,1.788Zm4.714-.6L7.733,9.459l0,0A.194.194,0,0,0,7.694,9.4L7.68,9.389a.2.2,0,0,0-.043-.029l-.018-.008a.2.2,0,0,0-.069-.014H4.371a.2.2,0,0,0-.069.014l-.018.008a.2.2,0,0,0-.043.029L4.227,9.4a.194.194,0,0,0-.037.053l0,0-.667,1.468H2.185l1.49-1.987h4.57l1.49,1.987Zm3.123-2.384a.8.8,0,0,1-.795.795H9.338V7.749A1.79,1.79,0,0,0,7.55,5.96H4.371A1.79,1.79,0,0,0,2.583,7.749V9.338H1.192A.8.8,0,0,1,.4,8.543V4.967H11.524Z" transform="translate(0 0)" fill="#333"/>
    <path id="Shape-2" data-name="Shape" d="M50.6,29.192a.6.6,0,1,0-.6-.6A.6.6,0,0,0,50.6,29.192Zm0-.795a.2.2,0,1,1-.2.2A.2.2,0,0,1,50.6,28.4Z" transform="translate(-40.066 -22.437)" fill="#333"/>
    <circle id="Oval" cx="0.199" cy="0.199" r="0.199" transform="translate(10.331 7.153)" fill="#333"/>
    <circle id="Oval-2" data-name="Oval" cx="0.199" cy="0.199" r="0.199" transform="translate(10.331 7.749)" fill="#333"/>
    <circle id="Oval-3" data-name="Oval" cx="0.199" cy="0.199" r="0.199" transform="translate(10.331 8.345)" fill="#333"/>
    <path id="Shape-3" data-name="Shape" d="M25.2,51.4h1.589a.2.2,0,1,0,0-.4H25.2a.2.2,0,1,0,0,.4Z" transform="translate(-20.033 -40.867)" fill="#333"/>
    <path id="Shape-4" data-name="Shape" d="M25.583,54H23.2a.2.2,0,0,0,0,.4h2.384a.2.2,0,1,0,0-.4Z" transform="translate(-18.43 -43.271)" fill="#333"/>
    <path id="Shape-5" data-name="Shape" d="M4.2,27.6a.2.2,0,0,0,.2-.2v-.2a.2.2,0,1,0-.4,0v.2A.2.2,0,0,0,4.2,27.6Z" transform="translate(-3.205 -21.636)" fill="#333"/>
    <path id="Shape-6" data-name="Shape" d="M4.2,33.589a.2.2,0,0,0,.2-.2V32.2a.2.2,0,1,0-.4,0v1.192A.2.2,0,0,0,4.2,33.589Z" transform="translate(-3.205 -25.642)" fill="#333"/>
  </g>
</svg>
