<svg id="ink" xmlns="http://www.w3.org/2000/svg" width="9.224" height="13.177" viewBox="0 0 9.224 13.177">
  <path id="Path_45" data-name="Path 45" d="M8.347,129.567H.877A.878.878,0,0,1,0,128.689v-7.028a.879.879,0,0,1,.878-.878h.879v-1.1a.22.22,0,0,1,.22-.22H7.247a.22.22,0,0,1,.22.22v1.1h.879a.879.879,0,0,1,.878.878v7.029A.878.878,0,0,1,8.347,129.567ZM.878,121.222a.439.439,0,0,0-.439.439v7.029a.439.439,0,0,0,.438.439H8.347a.438.438,0,0,0,.437-.439v-7.028a.439.439,0,0,0-.439-.439H7.431a.4.4,0,0,1-.4-.4V119.9H2.2v.914a.4.4,0,0,1-.4.4Zm0,0" transform="translate(0 -116.39)" fill="#333"/>
  <path id="Path_46" data-name="Path 46" d="M49.476,36.768H42.888a.22.22,0,0,1-.22-.22v-2.2a.22.22,0,0,1,.22-.22h6.588a.22.22,0,0,1,.22.22v2.2A.22.22,0,0,1,49.476,36.768Zm-6.369-.439h6.149V34.572H43.107Zm0,0" transform="translate(-41.57 -33.254)" fill="#333"/>
  <path id="Path_47" data-name="Path 47" d="M256.22,78.338a.22.22,0,0,1-.22-.22v-1.1a.22.22,0,0,1,.439,0v1.1A.22.22,0,0,1,256.22,78.338Zm0,0" transform="translate(-249.412 -74.824)" fill="#333"/>
  <path id="Path_48" data-name="Path 48" d="M213.552,78.338a.22.22,0,0,1-.22-.22v-1.1a.22.22,0,0,1,.439,0v1.1A.22.22,0,0,1,213.552,78.338Zm0,0" transform="translate(-207.842 -74.824)" fill="#333"/>
  <path id="Path_49" data-name="Path 49" d="M170.888,78.338a.22.22,0,0,1-.22-.22v-1.1a.22.22,0,0,1,.439,0v1.1A.22.22,0,0,1,170.888,78.338Zm0,0" transform="translate(-166.276 -74.824)" fill="#333"/>
  <path id="Path_50" data-name="Path 50" d="M128.22,78.338a.22.22,0,0,1-.22-.22v-1.1a.22.22,0,0,1,.439,0v1.1A.22.22,0,0,1,128.22,78.338Zm0,0" transform="translate(-124.706 -74.824)" fill="#333"/>
  <path id="Path_51" data-name="Path 51" d="M85.552,78.338a.22.22,0,0,1-.22-.22v-1.1a.22.22,0,0,1,.439,0v1.1A.22.22,0,0,1,85.552,78.338Zm0,0" transform="translate(-83.136 -74.824)" fill="#333"/>
  <path id="Path_52" data-name="Path 52" d="M49.476,1.318H42.888a.22.22,0,0,1-.22-.22V.571A.572.572,0,0,1,43.239,0h5.886A.572.572,0,0,1,49.7.571V1.1A.22.22,0,0,1,49.476,1.318ZM43.107.878h6.149V.571a.132.132,0,0,0-.132-.132H43.239a.132.132,0,0,0-.132.132Zm0,0" transform="translate(-41.57)" fill="#333"/>
  <path id="Path_53" data-name="Path 53" d="M9,236.328H.22a.22.22,0,0,1-.22-.22v-5.49a.22.22,0,0,1,.22-.22H9a.22.22,0,0,1,.22.22v5.49A.22.22,0,0,1,9,236.328Zm-8.565-.439H8.784v-5.051H.439Zm0,0" transform="translate(0 -224.469)" fill="#333"/>
  <path id="Path_54" data-name="Path 54" d="M129.251,277.129a1.317,1.317,0,0,1-1.121-2.011l.012-.019c.257-.412.5-.837.738-1.263l.178-.326a.229.229,0,0,1,.385,0l.178.326c.235.43.486.859.745,1.275a1.317,1.317,0,0,1-1.116,2.017Zm0-3.056c-.233.425-.481.848-.736,1.258a.879.879,0,1,0,1.48.013C129.736,274.928,129.486,274.5,129.251,274.073Zm0,0" transform="translate(-124.64 -266.368)" fill="#333"/>
  <path id="Path_55" data-name="Path 55" d="M34.352,265.853a.22.22,0,0,1-.22-.22v-.878a.22.22,0,0,1,.22-.22h.878a.22.22,0,0,1,0,.439h-.659v.659A.22.22,0,0,1,34.352,265.853Zm0,0" transform="translate(-33.254 -257.727)" fill="#333"/>
  <path id="Path_56" data-name="Path 56" d="M274.164,376.783h-.878a.22.22,0,1,1,0-.439h.659v-.659a.22.22,0,1,1,.439,0v.878A.22.22,0,0,1,274.164,376.783Zm0,0" transform="translate(-266.039 -365.802)" fill="#333"/>
</svg>
