<svg xmlns="http://www.w3.org/2000/svg" width="9.233" height="11.108" viewBox="0 0 9.233 11.108">
  <g id="text-documents" transform="translate(-40.856)">
    <g id="Group_53" data-name="Group 53" transform="translate(40.856)">
      <path id="Path_74" data-name="Path 74" d="M49.3,0H43.162a.793.793,0,0,0-.792.792V1.3h-.721a.793.793,0,0,0-.792.792v8.226a.793.793,0,0,0,.792.792h6.136a.793.793,0,0,0,.792-.792V9.81H49.3a.793.793,0,0,0,.792-.792V.792A.793.793,0,0,0,49.3,0ZM47.943,10.316a.159.159,0,0,1-.158.158H41.648a.159.159,0,0,1-.158-.158V2.09a.159.159,0,0,1,.158-.158h.721V9.018a.793.793,0,0,0,.792.792h4.781v.506Zm1.513-1.3a.159.159,0,0,1-.158.158H43.162A.159.159,0,0,1,43,9.018V.792a.159.159,0,0,1,.158-.158H49.3a.159.159,0,0,1,.158.158V9.018Z" transform="translate(-40.856 0)" fill="#333"/>
      <path id="Path_75" data-name="Path 75" d="M164.936,85.786h-4.647a.317.317,0,1,0,0,.634h4.647a.317.317,0,0,0,0-.634Z" transform="translate(-157.239 -83.818)" fill="#333"/>
      <path id="Path_76" data-name="Path 76" d="M164.936,151.529h-4.647a.317.317,0,1,0,0,.634h4.647a.317.317,0,0,0,0-.634Z" transform="translate(-157.239 -148.053)" fill="#333"/>
      <path id="Path_77" data-name="Path 77" d="M164.936,217.27h-4.647a.317.317,0,1,0,0,.634h4.647a.317.317,0,0,0,0-.634Z" transform="translate(-157.239 -212.285)" fill="#333"/>
      <path id="Path_78" data-name="Path 78" d="M164.936,283.014h-4.647a.317.317,0,1,0,0,.634h4.647a.317.317,0,0,0,0-.634Z" transform="translate(-157.239 -276.521)" fill="#333"/>
    </g>
  </g>
</svg>
