<svg id="projector" xmlns="http://www.w3.org/2000/svg" width="12.308" height="8.41" viewBox="0 0 12.308 8.41">
  <path id="Path_57" data-name="Path 57" d="M11.282,88H1.026A1.027,1.027,0,0,0,0,89.026v3.282a1.027,1.027,0,0,0,.821,1.005v.636a.205.205,0,0,0,.205.205H2.256a.205.205,0,0,0,.205-.205v-.615H5.333v.615a.205.205,0,0,0,.205.205H6.769a.205.205,0,0,0,.205-.205v-.615h3.077v.615a.205.205,0,0,0,.205.205h1.231a.205.205,0,0,0,.205-.205v-.7a1.026,1.026,0,0,0,.615-.939V89.026A1.027,1.027,0,0,0,11.282,88Zm-10.257.41H11.282a.615.615,0,0,1,.615.615v1.026H10.97a1.843,1.843,0,0,0-3.477,0H.41V89.026A.615.615,0,0,1,1.026,88.41ZM11.9,90.872h-.833a1.746,1.746,0,0,0,0-.41H11.9Zm-1.231-.205a1.436,1.436,0,1,1-1.436-1.436A1.436,1.436,0,0,1,10.667,90.667Zm-3.27.205H.41v-.41H7.4A1.746,1.746,0,0,0,7.4,90.872ZM2.051,93.744H1.231v-.41h.821Zm4.513,0H5.744v-.41h.821Zm4.718,0h-.821v-.41h.821Zm0-.821H1.026a.615.615,0,0,1-.615-.615V91.282H7.492a1.843,1.843,0,0,0,3.477,0H11.9v1.026A.615.615,0,0,1,11.282,92.923Zm0,0" transform="translate(0 -85.744)" fill="#333"/>
  <path id="Path_58" data-name="Path 58" d="M32,128h4.718v.41H32Zm0,0" transform="translate(-31.179 -124.718)" fill="#333"/>
  <path id="Path_59" data-name="Path 59" d="M32,240h4.718v.41H32Zm0,0" transform="translate(-31.179 -233.846)" fill="#333"/>
  <path id="Path_60" data-name="Path 60" d="M232,120h.41v.821H232Zm0,0" transform="translate(-226.051 -116.923)" fill="#333"/>
  <path id="Path_61" data-name="Path 61" d="M232,232h.41v.821H232Zm0,0" transform="translate(-226.051 -226.051)" fill="#333"/>
  <path id="Path_62" data-name="Path 62" d="M352,0h.41V1.436H352Zm0,0" transform="translate(-342.974)" fill="#333"/>
  <path id="Path_63" data-name="Path 63" d="M410.231,15.911l.607-1.3.372.173-.607,1.3Zm0,0" transform="translate(-399.712 -14.235)" fill="#333"/>
  <path id="Path_64" data-name="Path 64" d="M271.6,14.787l.372-.173.607,1.3-.372.173Zm0,0" transform="translate(-264.637 -14.239)" fill="#333"/>
  <path id="Path_65" data-name="Path 65" d="M321.026,152a1.026,1.026,0,1,0,1.026,1.026A1.026,1.026,0,0,0,321.026,152Zm0,1.641a.615.615,0,1,1,.615-.615A.615.615,0,0,1,321.026,153.641Zm0,0" transform="translate(-311.795 -148.102)" fill="#333"/>
</svg>
