<svg xmlns="http://www.w3.org/2000/svg" width="11.054" height="11.053" viewBox="0 0 11.054 11.053">
  <g id="barcode-scanner" transform="translate(-1 -1)">
    <path id="Path_82" data-name="Path 82" d="M28.032,9.714H26.784V9.535a.178.178,0,0,0-.135-.173l-1.426-.357A.178.178,0,0,0,25,9.2l.535,4.992a.178.178,0,0,0,.177.159h.891a.178.178,0,0,0,.178-.178v-.178H28.21v.891a.178.178,0,0,0,.178.178h.178v1.07h-.178a.178.178,0,0,0-.178.178v1.426a.892.892,0,0,0,.891.891h1.783a.178.178,0,0,0,.178-.178V13.992h.178a.535.535,0,0,0,.535-.535A3.748,3.748,0,0,0,28.032,9.714Zm-1.6,4.279h-.553l-.49-4.579,1.043.261v4.318Zm2.5,1.07h.357v1.07h-.357Zm1.783,3.209H29.1a.535.535,0,0,1-.535-.535V16.488h.891a.178.178,0,0,0,.178-.178V14.884a.178.178,0,0,0-.178-.178h-.891v-.713h2.139Zm.535-4.635H26.784V10.07h1.248a3.391,3.391,0,0,1,3.387,3.387A.178.178,0,0,1,31.241,13.636Z" transform="translate(-19.722 -6.574)" fill="#333"/>
    <rect id="Rectangle_40" data-name="Rectangle 40" width="1.783" height="0.357" transform="translate(8.844 4.922)" fill="#333"/>
    <rect id="Rectangle_41" data-name="Rectangle 41" width="1.783" height="0.357" transform="translate(8.844 5.635)" fill="#333"/>
    <rect id="Rectangle_42" data-name="Rectangle 42" width="1.783" height="0.357" transform="translate(8.844 6.348)" fill="#333"/>
    <path id="Path_83" data-name="Path 83" d="M4.744,1H1.178A.178.178,0,0,0,1,1.178V8.666a.178.178,0,0,0,.178.178H4.744a.178.178,0,0,0,.178-.178V1.178A.178.178,0,0,0,4.744,1ZM4.566,8.488H1.357V1.357H4.566Z" fill="#333"/>
    <rect id="Rectangle_43" data-name="Rectangle 43" width="2.496" height="0.357" transform="translate(1.713 5.992)" fill="#333"/>
    <rect id="Rectangle_44" data-name="Rectangle 44" width="2.496" height="0.357" transform="translate(1.713 7.775)" fill="#333"/>
    <rect id="Rectangle_45" data-name="Rectangle 45" width="2.496" height="0.357" transform="translate(1.713 5.279)" fill="#333"/>
    <rect id="Rectangle_46" data-name="Rectangle 46" width="2.496" height="0.357" transform="translate(1.713 3.496)" fill="#333"/>
    <rect id="Rectangle_47" data-name="Rectangle 47" width="2.496" height="0.357" transform="translate(1.713 1.713)" fill="#333"/>
    <rect id="Rectangle_48" data-name="Rectangle 48" width="2.496" height="0.713" transform="translate(1.713 6.705)" fill="#333"/>
    <rect id="Rectangle_49" data-name="Rectangle 49" width="2.496" height="0.713" transform="translate(1.713 4.209)" fill="#333"/>
    <rect id="Rectangle_50" data-name="Rectangle 50" width="2.496" height="0.713" transform="translate(1.713 2.426)" fill="#333"/>
  </g>
</svg>
