<svg id="software" xmlns="http://www.w3.org/2000/svg" width="12.233" height="12.233" viewBox="0 0 12.233 12.233">
  <path id="Path_103" data-name="Path 103" d="M11.681,2.007H9.175a.179.179,0,0,0,0,.358h2.506a.194.194,0,0,1,.193.193v6.9a.194.194,0,0,1-.193.193H.552a.194.194,0,0,1-.193-.193v-6.9a.194.194,0,0,1,.193-.193H4.489v.358H.9A.179.179,0,0,0,.717,2.9V7.638a.179.179,0,0,0,.358,0V3.082H4.489v.961l-.767.367a.18.18,0,0,0-.1.162V7.494a.179.179,0,0,0,.1.162L6.039,8.763a.182.182,0,0,0,.155,0l1.3-.623a.179.179,0,1,0-.155-.323l-1.046.5V5.792l1.959-.936V7.381l-.266.127a.179.179,0,0,0,.154.323l.368-.176a.179.179,0,0,0,.1-.162V4.572a.18.18,0,0,0-.1-.162l-.767-.367V3.082h3.414V8.936H1.075V8.4a.179.179,0,0,0-.358,0v.713A.179.179,0,0,0,.9,9.294H11.337a.179.179,0,0,0,.179-.179V2.9a.179.179,0,0,0-.179-.179H7.744V2.365H8.41a.179.179,0,1,0,0-.358H7.744V1.649H9.351a.179.179,0,0,0,.179-.179V1.044a.538.538,0,1,0-.358,0V1.29H7.565a.179.179,0,0,0-.179.179v.538H6.3V1.044a.538.538,0,1,0-.358,0v.963H4.847V1.469a.179.179,0,0,0-.179-.179H3.061V1.044a.538.538,0,1,0-.358,0v.425a.179.179,0,0,0,.179.179H4.489v.358H.552A.552.552,0,0,0,0,2.559v6.9a.552.552,0,0,0,.552.552H4.437A1.708,1.708,0,0,1,3.8,11.158H3.034a.538.538,0,1,0,0,1.075H9.2a.538.538,0,0,0,0-1.075H8.438A1.725,1.725,0,0,1,7.8,10.011h3.885a.552.552,0,0,0,.552-.552v-6.9A.552.552,0,0,0,11.681,2.007ZM9.351.358a.179.179,0,1,1-.179.179A.179.179,0,0,1,9.351.358Zm-3.234,0a.179.179,0,1,1-.179.179A.179.179,0,0,1,6.117.358Zm-3.234,0A.179.179,0,1,1,2.7.538.179.179,0,0,1,2.882.358ZM4.847,3.082h1.09v.269l-1.09.521Zm3.171,1.49-1.9.909-1.9-.909,1.9-.909Zm-4.04.284,1.959.936V8.317L3.978,7.381Zm3.408-.984L6.3,3.351V3.082h1.09Zm0-1.507v.358H6.3V2.365Zm-1.448,0v.358H4.847V2.365ZM9.378,11.7a.179.179,0,0,1-.179.179H3.034a.179.179,0,1,1,0-.358H9.2A.179.179,0,0,1,9.378,11.7Zm-1.454-.538H4.309A2.021,2.021,0,0,0,4.8,10.011H7.436A2.021,2.021,0,0,0,7.924,11.158Zm0,0" fill="#333"/>
</svg>
