<svg xmlns="http://www.w3.org/2000/svg" width="11.135" height="10.854" viewBox="0 0 11.135 10.854">
  <g id="desk" transform="translate(0 -21.4)">
    <g id="Group_54" data-name="Group 54" transform="translate(0 21.4)">
      <path id="Path_79" data-name="Path 79" d="M192.681,111h-2.22a.261.261,0,1,0,0,.522h2.22a.261.261,0,0,0,0-.522Z" transform="translate(-186.065 -108.834)" fill="#333"/>
      <path id="Path_80" data-name="Path 80" d="M8.762,31.774a.241.241,0,0,0,0,.481h.714a.232.232,0,0,0,.225-.24V28.687h.507a.232.232,0,0,0,.225-.24V27.56h.477a.241.241,0,0,0,0-.481H8.951l-.239-1.41a.666.666,0,0,0-.641-.573H7.808l-.152-2.743a.98.98,0,0,0-.948-.954H4.429a.978.978,0,0,0-.948.954L3.329,25.1H3.065a.662.662,0,0,0-.641.573l-.239,1.41H.225a.241.241,0,0,0,0,.481H.7v.886a.232.232,0,0,0,.225.24h.489v3.328a.232.232,0,0,0,.225.24h.714a.241.241,0,0,0,0-.481H1.866V28.687H9.251v3.087Zm-.693-6.2a.209.209,0,0,1,.2.177l.225,1.325H7.919l-.084-1.5ZM3.931,22.383a.513.513,0,0,1,.5-.5H6.706a.515.515,0,0,1,.5.5l.264,4.7h-3.8ZM2.865,25.754a.207.207,0,0,1,.2-.177H3.3l-.084,1.5H2.643ZM1.152,28.206V27.56H9.983v.646Z" transform="translate(0 -21.4)" fill="#333"/>
      <path id="Path_81" data-name="Path 81" d="M146.485,341.661a.26.26,0,0,0-.261-.261h-4.963a.261.261,0,1,0,0,.522h2.22v1h-1.068a.26.26,0,0,0-.261.261v1.311a.261.261,0,1,0,.522,0v-1.049h.807v1.049a.261.261,0,1,0,.522,0v-1.049h.807v1.049a.261.261,0,1,0,.522,0V343.18a.26.26,0,0,0-.261-.261H144v-1h2.22A.26.26,0,0,0,146.485,341.661Z" transform="translate(-138.175 -333.9)" fill="#333"/>
    </g>
  </g>
</svg>
