<svg xmlns="http://www.w3.org/2000/svg" width="10.054" height="10.054" viewBox="0 0 10.054 10.054">
  <g id="customer-support" transform="translate(-0.273 0)">
    <path id="Path_104" data-name="Path 104" d="M.336,1l.67,1.172a.167.167,0,0,0,.1.079l.625.156L3.879,4.551l.237-.237L1.939,2.137a.167.167,0,0,0-.078-.044l-.6-.151-.57-1L1.179.454l1,.571.151.6a.167.167,0,0,0,.044.078L4.55,3.881l.237-.237L2.643,1.5,2.487.876a.168.168,0,0,0-.079-.1L1.235.1a.167.167,0,0,0-.2.027L.364.8A.167.167,0,0,0,.336,1Zm0,0" transform="translate(-0.04 -0.078)" fill="#333"/>
    <path id="Path_105" data-name="Path 105" d="M177.9,173.956l-3.685,3.685-.237-.237,3.685-3.685Zm0,0" transform="translate(-170.643 -170.654)" fill="#333"/>
    <path id="Path_106" data-name="Path 106" d="M49.571,398.917a.167.167,0,0,0-.144-.081h-1a.167.167,0,0,0-.144.081l-.5.837a.167.167,0,0,0,0,.173l.5.837a.167.167,0,0,0,.144.081h1a.168.168,0,0,0,.144-.081l.5-.837a.167.167,0,0,0,0-.173Zm-.238,1.594h-.815l-.4-.67.4-.67h.815l.4.67Zm0,0" transform="translate(-46.642 -391.801)" fill="#333"/>
    <path id="Path_107" data-name="Path 107" d="M8.313,4.02a2,2,0,0,0,1.948-2.5.167.167,0,0,0-.281-.078L8.938,2.489l-.827-.276-.276-.827L8.877.343A.168.168,0,0,0,8.8.062,2,2,0,0,0,6.3,2.01a1.966,1.966,0,0,0,.041.392L2.676,6.071a1.976,1.976,0,0,0-.392-.041,2.01,2.01,0,1,0,2.01,2.01,1.971,1.971,0,0,0-.041-.392l.878-.878.384.384a.168.168,0,0,0,.237,0l.084-.084a.188.188,0,0,1,.266.265h0l-.084.084a.167.167,0,0,0,0,.237l2,2a1.352,1.352,0,1,0,1.92-1.9l-.009-.009-2-2a.167.167,0,0,0-.237,0l-.084.084a.188.188,0,0,1-.266-.265h0l.084-.084a.167.167,0,0,0,0-.237l-.384-.384.878-.878A1.971,1.971,0,0,0,8.313,4.02Zm.658,5.695a1.018,1.018,0,0,1-.356-.065L9.923,8.342a1.016,1.016,0,0,1-.952,1.373Zm-1.9-4.353A.523.523,0,0,0,7.81,6.1L9.69,7.979c.02.02.039.042.058.064L8.316,9.475c-.022-.018-.044-.037-.064-.058L6.371,7.536A.523.523,0,0,0,5.634,6.8l-.268-.268,1.44-1.437ZM7.75,3.677l-3.8,3.8a.168.168,0,0,0-.044.159A1.686,1.686,0,1,1,2.688,6.417a.169.169,0,0,0,.159-.044l3.8-3.8a.167.167,0,0,0,.044-.159A1.667,1.667,0,0,1,8.408.338l-.884.884a.167.167,0,0,0-.041.171l.335,1a.168.168,0,0,0,.106.106l1,.335A.167.167,0,0,0,9.1,2.8l.884-.884c0,.032,0,.064,0,.1a1.666,1.666,0,0,1-2.08,1.623.168.168,0,0,0-.159.044h0Zm0,0" transform="translate(0 0)" fill="#333"/>
    <path id="Path_108" data-name="Path 108" d="M384.8,384.3l-.237.237-1.675-1.675.237-.237Zm0,0" transform="translate(-375.868 -375.876)" fill="#333"/>
  </g>
</svg>
