<svg id="responsive" xmlns="http://www.w3.org/2000/svg" width="11.172" height="11.172" viewBox="0 0 11.172 11.172">
  <g id="Group_106" data-name="Group 106">
    <g id="Group_105" data-name="Group 105">
      <path id="Path_116" data-name="Path 116" d="M107.132,438.265a.465.465,0,1,0-.465-.465A.466.466,0,0,0,107.132,438.265Z" transform="translate(-104.34 -427.791)" fill="#333"/>
      <path id="Path_117" data-name="Path 117" d="M192.555,149.333h0a.231.231,0,0,0-.23.233.234.234,0,1,0,.235-.233Z" transform="translate(-188.124 -146.075)" fill="#333"/>
      <path id="Path_118" data-name="Path 118" d="M97.164,149.333h-.931a.233.233,0,0,0,0,.465h.931a.233.233,0,1,0,0-.465Z" transform="translate(-93.905 -146.075)" fill="#333"/>
      <path id="Path_119" data-name="Path 119" d="M298.667,437.8a.465.465,0,1,0,.465-.465A.466.466,0,0,0,298.667,437.8Z" transform="translate(-292.15 -427.791)" fill="#333"/>
      <path id="Path_120" data-name="Path 120" d="M135.215,0h-6.051A1.165,1.165,0,0,0,128,1.164v.465a.233.233,0,0,0,.466,0V1.164a.7.7,0,0,1,.7-.7h6.051a.7.7,0,0,1,.7.7v8.844a.7.7,0,0,1-.7.7h-3.957a.233.233,0,0,0,0,.466h3.957a1.165,1.165,0,0,0,1.164-1.164V1.164A1.165,1.165,0,0,0,135.215,0Z" transform="translate(-125.207)" fill="#333"/>
      <path id="Path_121" data-name="Path 121" d="M4.422,106.667H1.164A1.165,1.165,0,0,0,0,107.831v6.517a1.165,1.165,0,0,0,1.164,1.164H4.422a1.165,1.165,0,0,0,1.164-1.164v-6.517A1.165,1.165,0,0,0,4.422,106.667Zm.7,7.681a.7.7,0,0,1-.7.7H1.164a.7.7,0,0,1-.7-.7v-.7H5.12v.7Zm0-1.164H.465v-5.353a.7.7,0,0,1,.7-.7H4.422a.7.7,0,0,1,.7.7v5.353Z" transform="translate(0 -104.34)" fill="#333"/>
      <path id="Path_122" data-name="Path 122" d="M177.183,50.812V42.9a.233.233,0,0,0-.233-.233H170.9a.233.233,0,0,0-.233.233v.465a.233.233,0,0,0,.466,0v-.233h5.586v7.448h-3.491a.233.233,0,1,0,0,.465h3.724A.233.233,0,0,0,177.183,50.812Z" transform="translate(-166.942 -41.735)" fill="#333"/>
    </g>
  </g>
</svg>
