<svg xmlns="http://www.w3.org/2000/svg" width="12.383" height="11.128" viewBox="0 0 12.383 11.128">
  <g id="film" transform="translate(0 -0.005)">
    <path id="Path_136" data-name="Path 136" d="M27.111,7.528a.26.26,0,0,1-.129-.034l-.593-.343a.259.259,0,1,1,.258-.449l.593.343a.261.261,0,0,1,.1.353A.257.257,0,0,1,27.111,7.528Z" transform="translate(-19.485 -4.945)" fill="#333"/>
    <path id="Path_137" data-name="Path 137" d="M9.671,33.2a.26.26,0,0,1-.129-.034l-.593-.343a.259.259,0,0,1,.258-.449l.593.343a.261.261,0,0,1,.1.353A.257.257,0,0,1,9.671,33.2Z" transform="translate(-6.544 -23.993)" fill="#333"/>
    <path id="Path_138" data-name="Path 138" d="M10.658,29.514h-.516a.652.652,0,0,0-.317-.56L5.86,26.666l.258-.446,3.965,2.288A1.168,1.168,0,0,1,10.658,29.514Z" transform="translate(-4.348 -19.452)" fill="#333"/>
    <path id="Path_139" data-name="Path 139" d="M10.526,10.248l-.353-.374A15.21,15.21,0,0,0,13.754,3.45a2.38,2.38,0,0,0,.064-.58.411.411,0,0,0-.2-.359L10.191.54A.423.423,0,0,0,9.83.594C9.776.783,8.316,5.607,6.089,7.2l-.3-.42C7.874,5.29,9.329.478,9.345.432A.6.6,0,0,1,9.722.071a.908.908,0,0,1,.733.023l3.421,1.974a.93.93,0,0,1,.462.8,2.885,2.885,0,0,1-.08.7A15.538,15.538,0,0,1,10.526,10.248Z" transform="translate(-4.296)" fill="#333"/>
    <path id="Path_140" data-name="Path 140" d="M37.273,21.7h-.516a.643.643,0,0,0-.317-.555l-1.69-.975.258-.446,1.69.975A1.163,1.163,0,0,1,37.273,21.7Z" transform="translate(-25.785 -14.629)" fill="#333"/>
    <path id="Path_141" data-name="Path 141" d="M27.222,15.9a.26.26,0,0,1-.129-.034l-1.525-.88a.259.259,0,0,1,.258-.449l1.525.88a.261.261,0,0,1,.1.353A.257.257,0,0,1,27.222,15.9Z" transform="translate(-18.877 -10.755)" fill="#333"/>
    <path id="Path_142" data-name="Path 142" d="M4.417,20.321a.843.843,0,0,1-.428-.111L.459,18.169a.931.931,0,0,1,.008-1.61l7.02-4.048a.988.988,0,0,1,.965,0l.449.258a.259.259,0,1,1-.258.449l-.451-.258a.465.465,0,0,0-.446,0L.725,17.006a.417.417,0,0,0-.005.72l3.527,2.041a.519.519,0,0,0,.48-.049l6.947-4.009a.409.409,0,0,0,.193-.405.442.442,0,0,0-.212-.353L9.365,13.634a.259.259,0,0,1,.258-.449L11.916,14.5a.958.958,0,0,1,.467.8.92.92,0,0,1-.439.841L4.989,20.161A1.159,1.159,0,0,1,4.417,20.321Z" transform="translate(0 -9.188)" fill="#333"/>
  </g>
</svg>
