<svg xmlns="http://www.w3.org/2000/svg" width="12.402" height="9.302" viewBox="0 0 12.402 9.302">
  <g id="cctv" transform="translate(0 -64.002)">
    <g id="Group_104" data-name="Group 104" transform="translate(0 64.002)">
      <g id="Group_103" data-name="Group 103">
        <path id="Path_115" data-name="Path 115" d="M12.272,68.166,5.265,64.158a1.274,1.274,0,0,0-1.637.367L2.271,66.466a1.128,1.128,0,0,0,.36,1.623l1.478.853-.267.356a1.1,1.1,0,0,0,.013,1.346l-.393.592H1.55v-.778a.256.256,0,0,0-.258-.256H.258A.256.256,0,0,0,0,70.459v2.586a.258.258,0,0,0,.258.259H1.292a.258.258,0,0,0,.258-.259v-.258H3.461a1.547,1.547,0,0,0,1.29-.691l.424-.636a1.17,1.17,0,0,0,.248.034,1.183,1.183,0,0,0,1.01-.572l.284-.474,2.2,1.27a.258.258,0,0,0,.36-.108l.191-.383c.031,0,.062.009.094.009a1.812,1.812,0,0,0,1.809-1.81,1.669,1.669,0,0,0-.04-.338l.931-.466a.259.259,0,0,0,.013-.456ZM1.034,72.787H.517V70.72h.517v2.067Zm3.287-.976a1.031,1.031,0,0,1-.86.46H1.55v-.517H3.461a.515.515,0,0,0,.43-.23l.358-.537.444.266Zm1.668-1.153a.68.68,0,0,1-.907.227l-.655-.393a.6.6,0,0,1-.172-.879l.3-.406,1.709.986Zm2.947.477L2.889,67.646a.61.61,0,0,1-.195-.878l.649-.927L9.737,69.53Zm.793-.431.541-1.083.574-.287c0,.032.009.065.009.1A1.29,1.29,0,0,1,9.728,70.7Zm.357-1.569L3.64,65.417l.411-.587a.727.727,0,0,1,.957-.214L11.6,68.379Z" transform="translate(0 -64.002)" fill="#333"/>
        <circle id="Ellipse_3" data-name="Ellipse 3" cx="0.258" cy="0.258" r="0.258" transform="translate(8.268 5.684)" fill="#333"/>
      </g>
    </g>
  </g>
</svg>
