<svg id="remote-control" xmlns="http://www.w3.org/2000/svg" width="11.201" height="11.201" viewBox="0 0 11.201 11.201">
  <path id="Path_123" data-name="Path 123" d="M10.641,0H1.307a.561.561,0,0,0-.56.56v.525a2.047,2.047,0,0,0-.319.263.187.187,0,1,0,.265.263c.017-.018.036-.033.054-.049V2.987H.56a.561.561,0,0,0-.56.56v6.721a.18.18,0,0,0,.005.025.178.178,0,0,0,.008.038.18.18,0,0,0,.019.034.171.171,0,0,0,.012.023,2.519,2.519,0,0,0,1.823.813,2.519,2.519,0,0,0,1.823-.813.181.181,0,0,0,.012-.023.13.13,0,0,0,.026-.073.18.18,0,0,0,.005-.025V9.521H8.4a.187.187,0,0,0,.187-.187V8.961a.561.561,0,0,0-.56-.56H7.281V7.654h3.36a.561.561,0,0,0,.56-.56V.56A.561.561,0,0,0,10.641,0ZM.56,3.36H3.174a.187.187,0,0,1,.187.187V9.78a3.6,3.6,0,0,1-1.494.3,3.6,3.6,0,0,1-1.493-.3V3.547A.187.187,0,0,1,.56,3.36ZM3.734,8.4V7.654h.933V8.4ZM1.867,10.828a2.172,2.172,0,0,1-1.493-.634v-.007a4.083,4.083,0,0,0,1.493.268,4.083,4.083,0,0,0,1.494-.268v.007A2.156,2.156,0,0,1,1.867,10.828ZM8.214,8.961v.187H3.734V8.774H8.028A.187.187,0,0,1,8.214,8.961ZM6.907,8.4H5.04V7.654H6.907Zm3.734-1.12H3.734v-.56h.933a.187.187,0,1,0,0-.373H3.734v-2.8a.561.561,0,0,0-.56-.56H1.12v-.8a.181.181,0,0,0,.1-.048.916.916,0,0,1,1.3,0,.187.187,0,1,0,.265-.263A1.286,1.286,0,0,0,1.12,1.733V1.3a1.648,1.648,0,0,1,1.921.311.187.187,0,1,0,.265-.263A2.022,2.022,0,0,0,1.12.89V.56A.187.187,0,0,1,1.307.373h9.334a.187.187,0,0,1,.187.187V.747H6.907a.187.187,0,1,0,0,.373h3.92V6.347H7.281a.187.187,0,1,0,0,.373h3.547v.373A.187.187,0,0,1,10.641,7.281Zm0,0" fill="#333"/>
  <path id="Path_124" data-name="Path 124" d="M240.24,290.133h-1.12a.187.187,0,0,0,0,.373h1.12a.187.187,0,0,0,0-.373Zm0,0" transform="translate(-233.706 -283.785)" fill="#333"/>
  <path id="Path_125" data-name="Path 125" d="M180.319,34.133h-.933a.187.187,0,1,0,0,.373h.933a.187.187,0,1,0,0-.373Zm0,0" transform="translate(-175.279 -33.386)" fill="#333"/>
  <path id="Path_126" data-name="Path 126" d="M256.187,34.506h.373a.187.187,0,0,0,0-.373h-.373a.187.187,0,1,0,0,.373Zm0,0" transform="translate(-250.399 -33.386)" fill="#333"/>
  <path id="Path_127" data-name="Path 127" d="M64.981,102.769a.187.187,0,0,0,.265.263.185.185,0,0,1,.257,0,.187.187,0,0,0,.265-.263A.567.567,0,0,0,64.981,102.769Zm0,0" transform="translate(-63.508 -100.365)" fill="#333"/>
  <path id="Path_128" data-name="Path 128" d="M76.855,170.97a.2.2,0,0,0,.133.054l.037,0a.12.12,0,0,0,.034-.011.142.142,0,0,0,.034-.017l.028-.022a.216.216,0,0,0,.039-.062.187.187,0,0,0,.015-.071.2.2,0,0,0-.054-.133l-.028-.022a.141.141,0,0,0-.034-.017.118.118,0,0,0-.034-.011.185.185,0,0,0-.209.254A.214.214,0,0,0,76.855,170.97Zm0,0" transform="translate(-75.12 -166.917)" fill="#333"/>
  <path id="Path_129" data-name="Path 129" d="M42.959,332.815a.141.141,0,0,0-.034-.017.115.115,0,0,0-.034-.011.185.185,0,0,0-.209.254.215.215,0,0,0,.039.062.2.2,0,0,0,.133.054l.037,0a.119.119,0,0,0,.034-.011.141.141,0,0,0,.034-.017l.028-.022a.215.215,0,0,0,.039-.062.187.187,0,0,0,.015-.071.2.2,0,0,0-.054-.133Zm0,0" transform="translate(-41.734 -325.503)" fill="#333"/>
  <path id="Path_130" data-name="Path 130" d="M77.092,332.815a.141.141,0,0,0-.034-.017.115.115,0,0,0-.034-.011.185.185,0,0,0-.209.254.215.215,0,0,0,.039.062.2.2,0,0,0,.133.054l.037,0a.119.119,0,0,0,.034-.011.141.141,0,0,0,.034-.017l.028-.022a.215.215,0,0,0,.039-.062.187.187,0,0,0,.015-.071.2.2,0,0,0-.054-.133Zm0,0" transform="translate(-75.12 -325.503)" fill="#333"/>
  <path id="Path_131" data-name="Path 131" d="M111.224,332.815a.142.142,0,0,0-.034-.017.117.117,0,0,0-.034-.011.185.185,0,0,0-.209.254.217.217,0,0,0,.039.062.2.2,0,0,0,.133.054l.037,0a.12.12,0,0,0,.034-.011.142.142,0,0,0,.034-.017l.028-.022a.216.216,0,0,0,.039-.062.185.185,0,0,0,.015-.071.2.2,0,0,0-.054-.133Zm0,0" transform="translate(-108.506 -325.503)" fill="#333"/>
  <path id="Path_132" data-name="Path 132" d="M42.959,366.951a.142.142,0,0,0-.034-.017.115.115,0,0,0-.034-.011.185.185,0,0,0-.209.254.215.215,0,0,0,.039.061.2.2,0,0,0,.133.054l.037,0a.122.122,0,0,0,.034-.011.146.146,0,0,0,.034-.017l.028-.022a.215.215,0,0,0,.039-.061.188.188,0,0,0,.015-.071.2.2,0,0,0-.054-.133Zm0,0" transform="translate(-41.734 -358.892)" fill="#333"/>
  <path id="Path_133" data-name="Path 133" d="M77.092,366.951a.142.142,0,0,0-.034-.017.115.115,0,0,0-.034-.011.185.185,0,0,0-.209.254.215.215,0,0,0,.039.061.2.2,0,0,0,.133.054l.037,0a.122.122,0,0,0,.034-.011.146.146,0,0,0,.034-.017l.028-.022a.215.215,0,0,0,.039-.061.188.188,0,0,0,.015-.071.2.2,0,0,0-.054-.133Zm0,0" transform="translate(-75.12 -358.892)" fill="#333"/>
  <path id="Path_134" data-name="Path 134" d="M111.224,366.951a.143.143,0,0,0-.034-.017.117.117,0,0,0-.034-.011.185.185,0,0,0-.209.254.217.217,0,0,0,.039.061.2.2,0,0,0,.133.054l.037,0a.122.122,0,0,0,.034-.011.147.147,0,0,0,.034-.017l.028-.022a.215.215,0,0,0,.039-.061.186.186,0,0,0,.015-.071.2.2,0,0,0-.054-.133Zm0,0" transform="translate(-108.506 -358.892)" fill="#333"/>
  <path id="Path_135" data-name="Path 135" d="M35.253,207.041a1.12,1.12,0,1,0-1.12-1.12A1.12,1.12,0,0,0,35.253,207.041Zm0-1.867a.747.747,0,1,1-.747.747A.747.747,0,0,1,35.253,205.174Zm0,0" transform="translate(-33.386 -200.32)" fill="#333"/>
</svg>
