<?xml version="1.0" encoding="utf-8"?>
<!-- Generator: Adobe Illustrator 23.1.1, SVG Export Plug-In . SVG Version: 6.00 Build 0)  -->
<svg version="1.1" id="Layer_1" xmlns="http://www.w3.org/2000/svg" xmlns:xlink="http://www.w3.org/1999/xlink" x="0px" y="0px"
	 viewBox="0 0 512 512" style="enable-background:new 0 0 512 512;" xml:space="preserve">
<style type="text/css">
	.st0{fill:#333333;}
</style>
<g>
	<g>
		<path class="st0" d="M481.1,27.9H30.9C13.9,27.9,0,41.8,0,58.8v310.8c0,17,13.9,30.9,30.9,30.9h154.3v22.5
			c0,20.6-16.8,37.4-37.4,37.4h-34c-6.5,0-11.8,5.3-11.8,11.8s5.3,11.8,11.8,11.8h284.4c6.5,0,11.8-5.3,11.8-11.8
			s-5.3-11.8-11.8-11.8h-34c-20.6,0-37.4-16.8-37.4-37.4v-22.5h154.3c17,0,30.9-13.9,30.9-30.9V58.8C512,41.8,498.1,27.9,481.1,27.9
			z M195.9,460.5c8-10.3,12.9-23.3,12.9-37.4v-22.5h94.4v22.5c0,14.1,4.8,27.1,12.9,37.4H195.9z M488.4,369.7c0,4-3.3,7.3-7.3,7.3
			H30.9c-4,0-7.3-3.3-7.3-7.3v-62h464.8V369.7z M488.4,284H23.6V58.8c0-4,3.3-7.3,7.3-7.3h450.2c4,0,7.3,3.3,7.3,7.3L488.4,284
			L488.4,284z"/>
	</g>
</g>
<g>
	<g>
		<circle class="st0" cx="256" cy="342.3" r="12.7"/>
	</g>
</g>
<g>
	<g>
		<path class="st0" d="M276.2,109.3c-4.6-4.6-12.1-4.6-16.7,0l-83.4,83.4c-4.6,4.6-4.6,12.1,0,16.7c2.3,2.3,5.3,3.5,8.3,3.5
			s6-1.2,8.3-3.5l83.4-83.4C280.8,121.3,280.8,113.9,276.2,109.3z"/>
	</g>
</g>
<g>
	<g>
		<path class="st0" d="M325.7,157.6c-4.6-4.6-12.1-4.6-16.7,0l-33.2,33.2c-4.6,4.6-4.6,12.1,0,16.7c2.3,2.3,5.3,3.5,8.3,3.5
			c3,0,6-1.2,8.3-3.5l33.2-33.2C330.3,169.7,330.3,162.2,325.7,157.6z"/>
	</g>
</g>
</svg>
