<?xml version="1.0" encoding="utf-8"?>
<!-- Generator: Adobe Illustrator 16.0.3, SVG Export Plug-In . SVG Version: 6.00 Build 0)  -->
<!DOCTYPE svg PUBLIC "-//W3C//DTD SVG 1.1 Basic//EN" "http://www.w3.org/Graphics/SVG/1.1/DTD/svg11-basic.dtd">
<svg version="1.1" baseProfile="basic" id="Layer_1"
	 xmlns="http://www.w3.org/2000/svg" xmlns:xlink="http://www.w3.org/1999/xlink" x="0px" y="0px" width="144.544px"
	 height="64.98px" viewBox="0 0 144.544 64.98" xml:space="preserve">
<g>
	<g>
		<rect fill="#FFFFFF" width="144.589" height="65"/>
		<g>
			<g>
				<path fill="#DF2F31" d="M27.616,59.032c-0.859,0-1.538-0.688-1.538-1.54c0-0.849,0.678-1.542,1.538-1.542
					c0.85,0,1.535,0.693,1.535,1.542C29.15,58.344,28.465,59.032,27.616,59.032 M28.303,55.783c-0.241,0-0.478,0.056-0.687,0.151
					c-0.207-0.096-0.455-0.151-0.7-0.151c-0.94,0-1.705,0.767-1.705,1.709c0,0.94,0.765,1.714,1.705,1.714
					c0.245,0,0.494-0.056,0.7-0.16c0.209,0.104,0.446,0.16,0.687,0.16c0.947,0,1.706-0.773,1.706-1.714
					C30.008,56.55,29.25,55.783,28.303,55.783z M28.324,57.492c0-0.396-0.314-0.717-0.708-0.717c-0.403,0-0.707,0.321-0.707,0.717
					c0,0.389,0.304,0.713,0.707,0.713C28.01,58.205,28.324,57.881,28.324,57.492"/>
				<g>
					<polygon fill="#56585D" points="32.978,58.631 32.978,57.151 32.346,58.109 32.333,58.109 31.697,57.156 31.697,58.631 
						31.221,58.631 31.221,56.371 31.757,56.371 32.346,57.316 32.938,56.371 33.472,56.371 33.472,58.631 					"/>
					<path fill="#56585D" d="M34.944,58.652c-0.604,0-0.978-0.334-0.978-0.995v-1.286h0.492v1.273c0,0.376,0.191,0.561,0.499,0.561
						c0.295,0,0.481-0.183,0.481-0.548v-1.286h0.491v1.273C35.929,58.324,35.552,58.652,34.944,58.652z"/>
					<polygon fill="#56585D" points="36.929,56.819 36.929,57.321 37.913,57.321 37.913,57.767 36.929,57.767 36.929,58.631 
						36.428,58.631 36.428,56.371 38.168,56.371 38.168,56.819 					"/>
					<path fill="#56585D" d="M39.608,58.661c-0.696,0-1.189-0.502-1.189-1.169l0,0c0-0.643,0.499-1.164,1.177-1.164
						c0.409,0,0.658,0.108,0.879,0.311l-0.304,0.38c-0.174-0.154-0.324-0.238-0.59-0.238c-0.356,0-0.64,0.325-0.64,0.708v0.004
						c0,0.417,0.283,0.717,0.68,0.717c0.178,0,0.339-0.05,0.467-0.139v-0.304h-0.507v-0.445h0.979v0.979
						C40.341,58.503,40.027,58.661,39.608,58.661z"/>
				</g>
				<g>
					<path fill="#6F5F5E" d="M4.439,58.65H4.015l-0.231-0.58H2.74l-0.244,0.58H2.068l1.005-2.292h0.368L4.439,58.65z M3.629,57.723
						l-0.368-0.866H3.257l-0.376,0.866H3.629z"/>
					<path fill="#6F5F5E" d="M8.395,58.65H8.012v-0.884c0-0.317-0.107-0.48-0.336-0.48c-0.118,0-0.203,0.043-0.271,0.126
						c-0.057,0.08-0.093,0.191-0.093,0.33v0.908H6.926v-0.884c0-0.317-0.113-0.48-0.317-0.48c-0.117,0-0.213,0.043-0.275,0.135
						c-0.08,0.071-0.111,0.193-0.111,0.339v0.891h-0.38v-1.662h0.38v0.259h0.016c0.114-0.202,0.294-0.298,0.508-0.298
						c0.229,0,0.396,0.096,0.486,0.298c0.147-0.202,0.345-0.298,0.588-0.298c0.178,0,0.332,0.057,0.434,0.176
						c0.09,0.122,0.14,0.283,0.14,0.472V58.65z"/>
					<path fill="#6F5F5E" d="M10.398,58.372c-0.191,0.207-0.445,0.307-0.739,0.307c-0.271,0-0.476-0.076-0.636-0.246
						c-0.153-0.156-0.229-0.352-0.229-0.607c0-0.257,0.077-0.465,0.229-0.635c0.153-0.163,0.346-0.241,0.591-0.241
						c0.248,0,0.452,0.078,0.6,0.241c0.146,0.154,0.217,0.356,0.219,0.6H9.189v0.035c0,0.165,0.045,0.291,0.144,0.391
						c0.085,0.103,0.207,0.156,0.349,0.156c0.176,0,0.333-0.071,0.484-0.215L10.398,58.372z M10.015,57.522
						c-0.062-0.19-0.192-0.275-0.388-0.275c-0.182,0-0.328,0.085-0.387,0.275H10.015z"/>
					<path fill="#6F5F5E" d="M13.395,58.65h-0.391v-0.884c0-0.317-0.116-0.48-0.334-0.48c-0.114,0-0.201,0.043-0.272,0.126
						c-0.063,0.08-0.096,0.191-0.096,0.33v0.908h-0.377v-0.884c0-0.317-0.117-0.48-0.333-0.48c-0.11,0-0.195,0.043-0.269,0.135
						c-0.071,0.071-0.089,0.193-0.089,0.339v0.891h-0.392v-1.662h0.392v0.259l0,0c0.117-0.202,0.279-0.298,0.508-0.298
						c0.231,0,0.398,0.096,0.502,0.298c0.139-0.202,0.327-0.298,0.574-0.298c0.18,0,0.326,0.057,0.423,0.176
						c0.1,0.122,0.153,0.283,0.153,0.472V58.65z"/>
					<path fill="#6F5F5E" d="M14.267,58.65h-0.378v-2.448h0.011l0.372,0.122v0.923h0.008c0.157-0.202,0.344-0.298,0.584-0.298
						c0.218,0,0.401,0.078,0.55,0.241c0.158,0.154,0.243,0.371,0.243,0.621c0,0.259-0.085,0.465-0.236,0.63
						c-0.155,0.161-0.333,0.237-0.557,0.237c-0.259,0-0.456-0.087-0.592-0.296c0,0,0,0.003,0,0.014l-0.004-0.011V58.65z
						 M14.772,58.361c0.147,0,0.253-0.048,0.342-0.156c0.087-0.1,0.138-0.232,0.138-0.385c0-0.163-0.05-0.275-0.138-0.387
						c-0.089-0.106-0.195-0.158-0.342-0.158c-0.138,0-0.252,0.052-0.355,0.158c-0.093,0.111-0.147,0.224-0.147,0.378
						c0,0.148,0.054,0.285,0.147,0.394C14.521,58.307,14.634,58.361,14.772,58.361z"/>
					<path fill="#6F5F5E" d="M17.566,58.372c-0.193,0.207-0.446,0.307-0.742,0.307c-0.271,0-0.481-0.076-0.638-0.246
						c-0.131-0.156-0.22-0.352-0.22-0.607c0-0.257,0.089-0.465,0.22-0.635c0.153-0.163,0.35-0.241,0.606-0.241
						c0.251,0,0.44,0.078,0.6,0.241c0.13,0.154,0.208,0.356,0.214,0.6h-1.263v0.035c0,0.165,0.052,0.291,0.155,0.391
						c0.089,0.103,0.218,0.156,0.358,0.156c0.179,0,0.333-0.071,0.477-0.215L17.566,58.372z M17.189,57.522
						c-0.069-0.19-0.2-0.275-0.391-0.275c-0.185,0-0.321,0.085-0.397,0.275H17.189z"/>
					<path fill="#6F5F5E" d="M18.395,58.65H18.01v-1.662h0.385v0.372l0,0c0.132-0.274,0.339-0.411,0.632-0.411v0.402
						c-0.431,0.009-0.632,0.263-0.632,0.749V58.65z"/>
					<path fill="#6F5F5E" d="M22.054,57.825c0,0.245-0.078,0.451-0.236,0.616c-0.173,0.161-0.38,0.237-0.645,0.237
						c-0.259,0-0.464-0.076-0.63-0.237c-0.176-0.165-0.259-0.371-0.259-0.616c0-0.257,0.083-0.465,0.248-0.635
						c0.159-0.163,0.373-0.241,0.642-0.241s0.483,0.078,0.655,0.241C21.976,57.36,22.054,57.568,22.054,57.825z M21.173,58.344
						c0.153,0,0.269-0.052,0.361-0.151c0.096-0.096,0.141-0.225,0.141-0.367c0-0.163-0.045-0.28-0.133-0.39
						c-0.095-0.106-0.216-0.149-0.369-0.149c-0.152,0-0.272,0.043-0.36,0.149c-0.093,0.109-0.133,0.227-0.133,0.39
						c0,0.143,0.04,0.271,0.133,0.367C20.914,58.292,21.021,58.344,21.173,58.344z"/>
					<path fill="#6F5F5E" d="M22.975,59.321h-0.017l-0.369-0.115v-1.89h-0.221v-0.328h0.221v-0.169c0-0.376,0.171-0.557,0.523-0.557
						c0.095,0,0.208,0.016,0.33,0.042v0.339c-0.092-0.024-0.179-0.039-0.245-0.039c-0.143,0-0.223,0.08-0.223,0.256v0.128h0.467
						v0.328h-0.467V59.321z"/>
					<path fill="#6F5F5E" d="M3.665,62.472H3.291v-0.146H3.274c-0.133,0.126-0.3,0.188-0.508,0.188c-0.181,0-0.34-0.043-0.471-0.154
						c-0.133-0.11-0.198-0.254-0.198-0.432c0-0.177,0.065-0.328,0.192-0.433c0.134-0.106,0.289-0.156,0.477-0.156
						c0.215,0,0.375,0.065,0.508,0.187h0.017v-0.085c0-0.236-0.138-0.343-0.4-0.343c-0.181,0-0.355,0.061-0.492,0.181L2.187,61.04
						c0.212-0.176,0.454-0.28,0.735-0.28c0.219,0,0.394,0.059,0.538,0.174c0.136,0.106,0.205,0.271,0.205,0.493V62.472z
						 M3.153,62.128c0.079-0.041,0.121-0.119,0.121-0.199c0-0.085-0.042-0.15-0.121-0.207c-0.08-0.054-0.172-0.08-0.287-0.08
						c-0.103,0-0.195,0.026-0.266,0.076c-0.064,0.05-0.092,0.126-0.092,0.211c0,0.08,0.027,0.158,0.089,0.199
						c0.066,0.065,0.159,0.081,0.269,0.081C2.981,62.209,3.074,62.193,3.153,62.128z"/>
					<path fill="#6F5F5E" d="M6.776,62.222c0,0.25-0.08,0.44-0.243,0.602c-0.173,0.146-0.388,0.226-0.66,0.226
						c-0.301,0-0.547-0.108-0.745-0.327L5.376,62.5c0.156,0.139,0.317,0.222,0.498,0.222c0.15,0,0.272-0.06,0.366-0.154
						c0.114-0.096,0.156-0.224,0.156-0.374v-0.106h-0.01c-0.133,0.197-0.337,0.287-0.575,0.287c-0.229,0-0.416-0.063-0.565-0.23
						c-0.138-0.152-0.214-0.341-0.214-0.582c0-0.222,0.076-0.413,0.214-0.559c0.149-0.161,0.336-0.243,0.559-0.243
						c0.245,0,0.435,0.106,0.582,0.3h0.01v-0.254h0.381V62.222z M6.239,61.918c0.106-0.103,0.146-0.209,0.146-0.356
						c0-0.131-0.04-0.241-0.146-0.328c-0.094-0.089-0.203-0.135-0.35-0.135c-0.136,0-0.246,0.046-0.333,0.135
						c-0.079,0.087-0.131,0.197-0.131,0.328c0,0.147,0.053,0.263,0.147,0.356c0.076,0.084,0.192,0.134,0.33,0.134
						C6.041,62.052,6.146,62.002,6.239,61.918z"/>
					<path fill="#6F5F5E" d="M7.675,62.472H7.293v-2.448l0.382,0.117V62.472z"/>
					<path fill="#6F5F5E" d="M9.898,61.642c0,0.259-0.085,0.465-0.258,0.619c-0.163,0.165-0.37,0.245-0.638,0.245
						c-0.257,0-0.474-0.08-0.632-0.245c-0.164-0.154-0.256-0.36-0.256-0.619c0-0.252,0.083-0.456,0.256-0.623
						c0.149-0.168,0.37-0.259,0.632-0.259c0.268,0,0.489,0.091,0.657,0.259C9.813,61.186,9.898,61.39,9.898,61.642z M9.002,62.165
						c0.149,0,0.268-0.048,0.364-0.156c0.1-0.085,0.142-0.222,0.142-0.367c0-0.156-0.042-0.276-0.14-0.376
						c-0.083-0.106-0.209-0.158-0.367-0.158c-0.159,0-0.279,0.052-0.369,0.158c-0.082,0.1-0.123,0.22-0.123,0.376
						c0,0.146,0.042,0.282,0.141,0.367C8.74,62.117,8.861,62.165,9.002,62.165z"/>
					<path fill="#6F5F5E" d="M10.689,62.472h-0.373v-2.448h0l0.372,0.117v0.932h0.013c0.153-0.202,0.336-0.313,0.579-0.313
						c0.225,0,0.411,0.091,0.557,0.252c0.15,0.163,0.237,0.374,0.237,0.626c0,0.263-0.086,0.469-0.229,0.623
						c-0.153,0.165-0.339,0.245-0.564,0.245c-0.253,0-0.457-0.1-0.588-0.297h-0.003l0,0V62.472z M11.192,62.185
						c0.143,0,0.262-0.063,0.358-0.156c0.072-0.104,0.118-0.234,0.118-0.391c0-0.157-0.046-0.276-0.135-0.378
						c-0.084-0.111-0.204-0.161-0.341-0.161c-0.144,0-0.249,0.05-0.35,0.161c-0.097,0.102-0.149,0.221-0.149,0.378
						c0,0.149,0.052,0.286,0.149,0.38C10.943,62.122,11.048,62.185,11.192,62.185z"/>
					<path fill="#6F5F5E" d="M13.946,62.472h-0.388v-0.146l0,0c-0.135,0.126-0.314,0.188-0.507,0.188
						c-0.188,0-0.342-0.043-0.475-0.154c-0.123-0.11-0.201-0.254-0.201-0.432c0-0.177,0.079-0.328,0.196-0.433
						c0.127-0.106,0.291-0.156,0.479-0.156c0.193,0,0.373,0.065,0.507,0.187l0,0v-0.085c0-0.236-0.117-0.343-0.398-0.343
						c-0.182,0-0.33,0.061-0.483,0.181l-0.201-0.239c0.201-0.176,0.445-0.28,0.717-0.28c0.231,0,0.4,0.059,0.543,0.174
						c0.132,0.106,0.211,0.271,0.211,0.493V62.472z M13.44,62.128c0.075-0.041,0.117-0.119,0.117-0.199
						c0-0.085-0.042-0.15-0.117-0.207c-0.09-0.054-0.188-0.08-0.291-0.08c-0.115,0-0.203,0.026-0.274,0.076
						c-0.057,0.05-0.099,0.126-0.099,0.211c0,0.08,0.037,0.158,0.099,0.199c0.056,0.065,0.15,0.081,0.269,0.081
						C13.244,62.209,13.35,62.193,13.44,62.128z"/>
					<path fill="#6F5F5E" d="M14.841,62.472h-0.388v-2.448l0.388,0.117V62.472z"/>
					<path fill="#6F5F5E" d="M16.825,63.149h-0.011l-0.376-0.115v-1.89h-0.213v-0.339h0.213v-0.163c0-0.367,0.176-0.559,0.53-0.559
						c0.1,0,0.208,0.021,0.333,0.046v0.341c-0.103-0.035-0.189-0.046-0.241-0.046c-0.156,0-0.234,0.081-0.234,0.252v0.129h0.473
						v0.339h-0.473V63.149z M18.01,60.542h-0.419v-0.387h0.419V60.542z M17.998,62.472h-0.392v-1.666h0.392V62.472z"/>
					<path fill="#6F5F5E" d="M20.059,62.472h-0.381v-0.889c0-0.128-0.025-0.232-0.069-0.304c-0.058-0.109-0.161-0.159-0.291-0.159
						c-0.118,0-0.212,0.028-0.283,0.122c-0.071,0.076-0.11,0.188-0.11,0.341v0.889h-0.377v-1.666h0.377v0.254l0,0
						c0.135-0.193,0.316-0.3,0.542-0.3c0.186,0,0.319,0.063,0.432,0.185c0.109,0.115,0.159,0.268,0.159,0.476V62.472z"/>
					<path fill="#6F5F5E" d="M22.017,62.472h-0.372v-0.146H21.63c-0.133,0.126-0.304,0.188-0.505,0.188
						c-0.185,0-0.344-0.043-0.472-0.154c-0.135-0.11-0.197-0.254-0.197-0.432c0-0.177,0.063-0.328,0.197-0.433
						c0.128-0.106,0.274-0.156,0.472-0.156c0.205,0,0.372,0.065,0.505,0.187h0.015v-0.085c0-0.236-0.138-0.343-0.413-0.343
						c-0.175,0-0.342,0.061-0.471,0.181l-0.218-0.239c0.203-0.176,0.441-0.28,0.722-0.28c0.233,0,0.411,0.059,0.545,0.174
						c0.141,0.106,0.207,0.271,0.207,0.493V62.472z M21.506,62.128c0.08-0.041,0.124-0.119,0.124-0.199
						c0-0.085-0.043-0.15-0.124-0.207c-0.074-0.054-0.167-0.08-0.281-0.08c-0.107,0-0.205,0.026-0.266,0.076
						c-0.077,0.05-0.104,0.126-0.104,0.211c0,0.08,0.027,0.158,0.104,0.199c0.061,0.065,0.159,0.081,0.25,0.081
						C21.339,62.209,21.432,62.193,21.506,62.128z"/>
					<path fill="#6F5F5E" d="M24.037,62.472h-0.377v-0.889c0-0.128-0.033-0.232-0.083-0.304c-0.055-0.109-0.145-0.159-0.285-0.159
						c-0.104,0-0.213,0.028-0.284,0.122c-0.071,0.076-0.102,0.188-0.102,0.341v0.889h-0.393v-1.666h0.393v0.254h0.01
						c0.113-0.193,0.292-0.3,0.526-0.3c0.185,0,0.333,0.063,0.446,0.185c0.095,0.115,0.148,0.268,0.148,0.476V62.472z"/>
					<path fill="#6F5F5E" d="M26.016,62.209c-0.196,0.193-0.427,0.297-0.692,0.297c-0.252,0-0.467-0.087-0.639-0.247
						c-0.161-0.165-0.24-0.369-0.24-0.617s0.079-0.445,0.23-0.623c0.173-0.168,0.38-0.259,0.648-0.259
						c0.265,0,0.503,0.11,0.692,0.304l-0.242,0.235c-0.129-0.133-0.285-0.2-0.433-0.2c-0.153,0-0.27,0.05-0.362,0.161
						c-0.096,0.091-0.131,0.219-0.131,0.382c0,0.152,0.036,0.282,0.131,0.376c0.096,0.104,0.212,0.158,0.362,0.158
						c0.148,0,0.303-0.069,0.443-0.208L26.016,62.209z"/>
					<path fill="#6F5F5E" d="M26.834,60.542h-0.43v-0.387h0.43V60.542z M26.822,62.472h-0.386v-1.666h0.386V62.472z"/>
					<path fill="#6F5F5E" d="M28.815,62.472h-0.374v-0.146H28.43c-0.135,0.126-0.304,0.188-0.503,0.188
						c-0.189,0-0.356-0.043-0.466-0.154c-0.142-0.11-0.21-0.254-0.21-0.432c0-0.177,0.068-0.328,0.199-0.433
						c0.121-0.106,0.288-0.156,0.478-0.156c0.199,0,0.368,0.065,0.503,0.187h0.012v-0.085c0-0.236-0.139-0.343-0.403-0.343
						c-0.176,0-0.344,0.061-0.477,0.181l-0.209-0.239c0.191-0.176,0.44-0.28,0.717-0.28c0.226,0,0.411,0.059,0.543,0.174
						c0.142,0.106,0.203,0.271,0.203,0.493V62.472z M28.303,62.128c0.086-0.041,0.127-0.119,0.127-0.199
						c0-0.085-0.042-0.15-0.127-0.207c-0.07-0.054-0.162-0.08-0.278-0.08c-0.109,0-0.2,0.026-0.263,0.076
						c-0.067,0.05-0.107,0.126-0.107,0.211c0,0.08,0.026,0.158,0.107,0.199c0.053,0.065,0.142,0.081,0.259,0.081
						C28.126,62.209,28.223,62.193,28.303,62.128z"/>
					<path fill="#6F5F5E" d="M29.714,62.472h-0.375v-2.448l0.375,0.117V62.472z"/>
					<path fill="#6F5F5E" d="M32.868,62.222c0,0.25-0.093,0.44-0.263,0.602c-0.163,0.146-0.375,0.226-0.64,0.226
						c-0.306,0-0.556-0.108-0.749-0.327l0.247-0.222c0.145,0.139,0.31,0.222,0.502,0.222c0.132,0,0.264-0.06,0.36-0.154
						c0.1-0.096,0.165-0.224,0.165-0.374v-0.106h-0.012c-0.153,0.197-0.345,0.287-0.588,0.287c-0.219,0-0.408-0.063-0.564-0.23
						c-0.144-0.152-0.22-0.341-0.22-0.582c0-0.222,0.076-0.413,0.22-0.559c0.167-0.161,0.346-0.243,0.564-0.243
						c0.234,0,0.418,0.106,0.581,0.3h0.008v-0.254h0.39V62.222z M32.326,61.918c0.1-0.103,0.153-0.209,0.153-0.356
						c0-0.131-0.053-0.241-0.158-0.328c-0.091-0.089-0.212-0.135-0.349-0.135c-0.131,0-0.242,0.046-0.324,0.135
						c-0.092,0.087-0.133,0.197-0.133,0.328c0,0.147,0.041,0.263,0.141,0.356c0.077,0.084,0.194,0.134,0.328,0.134
						C32.121,62.052,32.235,62.002,32.326,61.918z"/>
					<path fill="#6F5F5E" d="M33.745,62.472h-0.378v-1.666h0.378v0.391h0.006c0.125-0.284,0.329-0.437,0.63-0.437v0.415
						c-0.429,0.021-0.636,0.256-0.636,0.749V62.472z"/>
					<path fill="#6F5F5E" d="M36.39,61.642c0,0.259-0.089,0.465-0.244,0.619c-0.173,0.165-0.391,0.245-0.643,0.245
						c-0.263,0-0.474-0.08-0.635-0.245c-0.173-0.154-0.265-0.36-0.265-0.619c0-0.252,0.092-0.456,0.258-0.623
						c0.16-0.168,0.379-0.259,0.642-0.259c0.266,0,0.48,0.091,0.643,0.259C36.315,61.186,36.39,61.39,36.39,61.642z M35.503,62.165
						c0.143,0,0.266-0.048,0.362-0.156c0.083-0.085,0.133-0.222,0.133-0.367c0-0.156-0.049-0.276-0.128-0.376
						c-0.101-0.106-0.222-0.158-0.367-0.158c-0.156,0-0.271,0.052-0.363,0.158c-0.101,0.1-0.135,0.22-0.135,0.376
						c0,0.146,0.034,0.282,0.141,0.367C35.24,62.117,35.354,62.165,35.503,62.165z"/>
					<path fill="#6F5F5E" d="M38.316,62.472h-0.383v-0.263h-0.015c-0.116,0.197-0.291,0.297-0.526,0.297
						c-0.185,0-0.325-0.054-0.434-0.162c-0.102-0.113-0.169-0.276-0.169-0.489v-1.049h0.389v0.962c0,0.1,0.024,0.187,0.092,0.261
						c0.064,0.089,0.145,0.137,0.259,0.137c0.273,0,0.397-0.204,0.397-0.582v-0.777h0.389V62.472z"/>
					<path fill="#6F5F5E" d="M39.199,63.149c-0.159-0.053-0.281-0.085-0.379-0.115v-2.229h0.387v0.258h0.017
						c0.143-0.193,0.335-0.304,0.574-0.304c0.228,0,0.41,0.082,0.565,0.243c0.144,0.167,0.218,0.371,0.218,0.635
						c0,0.263-0.063,0.469-0.218,0.623c-0.155,0.165-0.337,0.245-0.565,0.245c-0.239,0-0.444-0.1-0.574-0.297h-0.025V63.149z
						 M39.712,62.185c0.135,0,0.26-0.063,0.337-0.167c0.082-0.094,0.141-0.23,0.141-0.38c0-0.159-0.059-0.287-0.126-0.378
						c-0.092-0.115-0.217-0.161-0.352-0.161c-0.139,0-0.25,0.05-0.357,0.161c-0.091,0.091-0.13,0.219-0.13,0.378
						c0,0.149,0.04,0.286,0.13,0.38C39.462,62.122,39.573,62.185,39.712,62.185z"/>
				</g>
			</g>
			<g>
				<rect x="1.563" y="1.586" fill="#6F5F5E" width="39.498" height="52.113"/>
				<g>
					<g>
						<g>
							<path fill="#FFFFFF" d="M11.775,37.123h0.819c0,0,0.13,0.028,0.13,0.149c0,0.113,0,0.392,0,0.392h0.005
								c0.228-0.445,0.669-0.637,1.216-0.637v0.723v0.235c-0.058,0-0.12,0.013-0.189,0.015c-0.565,0.062-1.032,0.369-1.032,1.141
								v1.607c0,0,0.018,0.305-0.25,0.305c-0.277,0-0.699,0-0.699,0V37.123z"/>
							<path fill="#FFFFFF" d="M31.571,37.123h0.804c0,0,0.143,0.028,0.143,0.149c0,0.113,0,0.392,0,0.392h0.013
								c0.229-0.445,0.663-0.637,1.213-0.637v0.723v0.235c-0.074,0-0.132,0.013-0.203,0.015c-0.553,0.062-1.024,0.369-1.024,1.141
								v1.607c0,0,0.019,0.305-0.265,0.305c-0.269,0-0.682,0-0.682,0V37.123z"/>
							<path fill="#FFFFFF" d="M18.021,37.31c0,0.156,0,3.566,0,3.566s-0.006,0.177-0.141,0.177c-0.237,0-0.801,0-0.801,0v-0.397
								h-0.021c-0.202,0.267-0.591,0.476-1.117,0.476c-0.678,0-1.43-0.276-1.43-1.417v-2.591h0.794c0,0,0.136,0.021,0.136,0.187
								c0,0.135,0,2.138,0,2.138c0,0.543,0.231,0.775,0.702,0.775c0.714,0,0.935-0.521,0.935-0.982v-2.117h0.795
								C17.875,37.123,18.021,37.145,18.021,37.31z"/>
							<path fill="#FFFFFF" d="M18.954,37.123h0.771c0,0,0.174,0.021,0.174,0.171c0,0.154,0,0.211,0,0.211h0.007
								c0.285-0.337,0.7-0.478,1.066-0.478c0.941,0,1.354,0.469,1.354,1.331v2.533c0,0,0,0.161-0.131,0.161c-0.177,0-0.81,0-0.81,0
								v-2.403c0-0.355-0.158-0.703-0.654-0.703c-0.454,0-0.832,0.302-0.832,1.031v1.898c0,0,0,0.177-0.15,0.177
								c-0.223,0-0.794,0-0.794,0V37.123z"/>
							<path fill="#FFFFFF" d="M26.771,37.294c0,0.163,0,3.658,0,3.658c0,1.028-0.837,1.525-1.892,1.525
								c-1.231,0-1.747-0.86-1.747-1.355h1.001c0.069,0.284,0.328,0.495,0.808,0.495c0.61,0,0.887-0.302,0.887-0.788v-0.42
								c-0.306,0.324-0.771,0.426-1.117,0.426c-0.981,0-1.703-0.719-1.703-1.895c0-1.186,0.722-1.913,1.703-1.913
								c0.559,0,0.865,0.191,1.099,0.469h0.018v-0.373h0.784C26.611,37.123,26.771,37.123,26.771,37.294z M24.929,37.892
								c-0.71,0-0.921,0.628-0.936,1.049c0.015,0.413,0.226,1.03,0.936,1.03c0.716,0,0.915-0.617,0.926-1.03
								C25.843,38.52,25.645,37.892,24.929,37.892z"/>
							<path fill="#FFFFFF" d="M30.767,37.851l-0.449,0.428l-0.094,0.08c-0.01-0.045-0.043-0.076-0.066-0.11
								c-0.15-0.226-0.444-0.441-0.918-0.441c-0.438-0.009-0.715,0.148-0.715,0.378c0,0.685,2.476,0.098,2.476,1.575
								c0,0.951-0.852,1.371-1.751,1.371c-0.849,0-1.46-0.257-1.818-0.621c-0.073-0.083,0.018-0.166,0.018-0.166l0.62-0.473
								c0.216,0.323,0.622,0.488,1.132,0.488c0.444,0,0.748-0.243,0.748-0.454c0-0.665-2.417-0.121-2.417-1.607
								c0-0.873,0.763-1.271,1.725-1.271c0.793,0,1.275,0.343,1.51,0.586C30.907,37.746,30.767,37.851,30.767,37.851z"/>
							<path fill="#FFFFFF" d="M35.24,35.663c0-0.124-0.153-0.133-0.153-0.133h-0.783v0.819c0,0-0.019,0.139,0.135,0.139
								c0.146,0,0.801,0,0.801,0S35.24,35.784,35.24,35.663z M34.304,37.123h0.804c0,0,0.131,0.017,0.131,0.16
								c0,0.148,0,3.593,0,3.593s0.035,0.177-0.146,0.177c-0.17,0-0.789,0-0.789,0V37.123z"/>
							<path fill="#FFFFFF" d="M11.281,37.123c0,0-0.82,0-1.021,0c-0.193,0-0.346,0.137-0.346,0.137l-1.349,1.334
								c0,0,0-1.947,0-2.118c0-0.174-0.153-0.28-0.153-0.28L7.615,35.53v5.522c0,0,0.611,0,0.792,0c0.17,0,0.158-0.218,0.158-0.218
								s0-1.015,0-1.045c0-0.041,0.033-0.082,0.087-0.082c0.065,0,0.142,0.087,0.142,0.087l1.096,1.081c0,0,0.204,0.177,0.417,0.177
								c0.229,0,0.974,0,0.974,0l-1.986-1.966L11.281,37.123z"/>
						</g>
					</g>
					<g>
						<path fill="#FFFFFF" d="M10.075,46.729l0.242,0.237c-0.352,0.345-0.75,0.523-1.224,0.523c-0.439,0-0.807-0.148-1.093-0.459
							c-0.299-0.302-0.442-0.678-0.442-1.116c0-0.472,0.144-0.836,0.442-1.139c0.287-0.302,0.654-0.454,1.093-0.454
							c0.483,0,0.903,0.183,1.224,0.524l-0.242,0.243c-0.17-0.176-0.331-0.289-0.474-0.354c-0.144-0.061-0.315-0.089-0.508-0.102
							c-0.347,0-0.619,0.119-0.837,0.371c-0.229,0.25-0.34,0.547-0.34,0.91c0,0.346,0.112,0.643,0.346,0.897
							c0.232,0.238,0.501,0.362,0.832,0.362C9.448,47.174,9.768,47.03,10.075,46.729z"/>
						<path fill="#FFFFFF" d="M13.178,46.296c0,0.339-0.109,0.617-0.33,0.837c-0.224,0.22-0.508,0.328-0.847,0.328
							c-0.333,0-0.622-0.108-0.841-0.328c-0.217-0.22-0.336-0.498-0.336-0.837c0-0.325,0.119-0.604,0.336-0.829
							c0.207-0.213,0.488-0.326,0.841-0.326c0.356,0,0.638,0.113,0.865,0.332C13.084,45.692,13.178,45.971,13.178,46.296z
							 M12.001,47.159c0.25,0,0.452-0.085,0.599-0.246c0.155-0.167,0.229-0.367,0.229-0.617c0-0.247-0.069-0.46-0.223-0.618
							c-0.138-0.166-0.343-0.255-0.605-0.255c-0.26,0-0.452,0.089-0.601,0.255c-0.149,0.158-0.212,0.371-0.212,0.618
							c0,0.25,0.063,0.45,0.219,0.617C11.568,47.074,11.76,47.159,12.001,47.159z"/>
						<path fill="#FFFFFF" d="M15.741,47.426h-0.337v-1.149c0-0.167,0-0.293-0.011-0.358c-0.028-0.108-0.071-0.199-0.148-0.295
							c-0.099-0.119-0.254-0.191-0.449-0.191c-0.18,0-0.35,0.072-0.473,0.202c-0.147,0.146-0.214,0.343-0.214,0.598v1.194h-0.324
							V45.19h0.324v0.365h0.003c0.192-0.284,0.449-0.415,0.781-0.415c0.21,0,0.395,0.05,0.527,0.144
							c0.221,0.172,0.322,0.41,0.322,0.726V47.426z"/>
						<path fill="#FFFFFF" d="M17.875,45.694c-0.198-0.183-0.43-0.277-0.678-0.277c-0.13,0-0.23,0.025-0.313,0.093
							c-0.086,0.069-0.137,0.147-0.137,0.263c0,0.104,0.058,0.177,0.155,0.225c0.064,0.034,0.177,0.069,0.358,0.112
							c0.248,0.061,0.427,0.122,0.535,0.193c0.167,0.117,0.253,0.285,0.253,0.509c0,0.215-0.073,0.378-0.234,0.495
							c-0.139,0.096-0.335,0.154-0.555,0.154c-0.193,0-0.376-0.046-0.544-0.111c-0.18-0.084-0.315-0.19-0.39-0.319l0.237-0.217
							c0.199,0.236,0.448,0.358,0.714,0.358c0.13,0,0.231-0.039,0.313-0.089c0.085-0.053,0.125-0.142,0.125-0.255
							c0-0.13-0.059-0.224-0.173-0.293c-0.075-0.039-0.21-0.082-0.406-0.13c-0.214-0.053-0.39-0.109-0.48-0.174
							c-0.159-0.094-0.237-0.255-0.237-0.445c0-0.207,0.079-0.372,0.237-0.502c0.154-0.094,0.342-0.144,0.562-0.144
							c0.36,0,0.63,0.113,0.845,0.326L17.875,45.694z"/>
						<path fill="#FFFFFF" d="M20.605,47.426h-0.33v-0.382l-0.014-0.014c-0.188,0.28-0.428,0.431-0.757,0.431
							c-0.22,0-0.393-0.059-0.535-0.163c-0.225-0.165-0.332-0.408-0.332-0.722V45.19h0.332v1.121c0,0.176,0.007,0.293,0.025,0.36
							c0.02,0.103,0.072,0.196,0.142,0.294c0.121,0.121,0.259,0.193,0.456,0.193c0.184,0,0.364-0.076,0.482-0.218
							c0.13-0.135,0.201-0.35,0.201-0.617V45.19h0.33V47.426z"/>
						<path fill="#FFFFFF" d="M24.742,47.426h-0.338v-1.149c0-0.167,0-0.293-0.019-0.358c-0.023-0.108-0.062-0.199-0.131-0.284
							c-0.088-0.124-0.235-0.191-0.417-0.191c-0.191,0-0.365,0.069-0.479,0.215c-0.107,0.14-0.162,0.305-0.162,0.518v1.251H22.87
							v-1.149c0-0.167-0.003-0.293-0.021-0.354c-0.008-0.113-0.053-0.204-0.11-0.289c-0.103-0.124-0.244-0.191-0.426-0.191
							c-0.194,0-0.362,0.076-0.479,0.227c-0.117,0.141-0.178,0.328-0.178,0.577v1.18H21.33V45.19h0.326v0.365h0.019
							c0.159-0.284,0.398-0.415,0.724-0.415c0.332,0,0.56,0.139,0.713,0.445h0.006c0.203-0.307,0.486-0.445,0.812-0.445
							c0.224,0,0.409,0.061,0.545,0.209c0.176,0.16,0.267,0.391,0.267,0.66V47.426z"/>
						<path fill="#FFFFFF" d="M27.148,46.828l0.223,0.202c-0.248,0.28-0.561,0.431-0.935,0.431c-0.354,0-0.639-0.111-0.841-0.337
							c-0.189-0.217-0.281-0.489-0.281-0.839c0-0.325,0.103-0.604,0.299-0.829c0.198-0.211,0.466-0.315,0.792-0.315
							c0.297,0,0.551,0.089,0.744,0.302c0.182,0.191,0.284,0.435,0.313,0.728h-1.784c-0.009,0.051-0.009,0.083-0.009,0.126
							c0,0.216,0.055,0.39,0.142,0.546c0.151,0.208,0.341,0.317,0.626,0.317C26.701,47.159,26.941,47.05,27.148,46.828z
							 M25.74,45.891h1.312c-0.122-0.305-0.341-0.474-0.647-0.474C26.086,45.417,25.855,45.586,25.74,45.891z"/>
						<path fill="#FFFFFF" d="M28.362,47.426h-0.323V45.19h0.323v0.557h0.011c0.184-0.406,0.486-0.606,0.919-0.606v0.369
							c-0.243,0.002-0.446,0.078-0.586,0.191c-0.149,0.124-0.241,0.296-0.299,0.52c-0.034,0.139-0.045,0.336-0.045,0.6V47.426z"/>
					</g>
				</g>
				<g>
					<path fill="#FFD400" d="M17.982,23.143L17.982,23.143h-0.006l0,0c-0.679-0.713-1.522-1.88-2.04-3.546l-0.063-0.067
						c-0.028,0-0.049,0.069-0.049,0.069v-0.002c-1.131,3.693-3.882,5.145-4.83,5.468l0,0c-0.047,0.015-0.047,0.054-0.047,0.088
						c0.484,1.298,1.208,2.484,2.104,3.487c0.019,0.024,0.045,0.034,0.104,0.009c2.941-1.677,4.61-4.951,4.843-5.409
						C18.01,23.196,17.998,23.16,17.982,23.143z"/>
					<path fill="#FFD400" d="M24.651,23.143L24.651,23.143h0.004l0,0c0.687-0.713,1.521-1.88,2.046-3.546
						c0,0,0.018-0.067,0.055-0.067c0.026,0,0.049,0.069,0.049,0.069v-0.002c1.146,3.693,3.886,5.145,4.833,5.468l0,0
						c0.049,0.015,0.049,0.054,0.034,0.088c-0.471,1.298-1.19,2.484-2.092,3.487c-0.018,0.024-0.054,0.034-0.104,0.009
						c-2.944-1.677-4.62-4.951-4.837-5.409C24.615,23.196,24.64,23.16,24.651,23.143z"/>
					<path fill="#FFD400" d="M26.649,30.937L26.649,30.937c-4.17-4.056-5.265-11.28-5.265-11.28s-0.009-0.127-0.062-0.127
						c-0.058,0-0.091,0.127-0.091,0.127s-1.078,7.224-5.24,11.28l0,0c0,0-0.045,0.033,0,0.064c1.563,0.857,3.344,1.35,5.24,1.36
						c0,0,0.063,0,0.091,0c0.017,0,0.041,0,0.062,0c1.899-0.011,3.692-0.503,5.265-1.36C26.686,30.97,26.649,30.937,26.649,30.937z"
						/>
					<path fill="#FFD400" d="M27.086,11.88c-0.064-0.033-0.064,0.048-0.064,0.048l0,0c0,1.306,0.178,8.501,5.208,10.701
						c0.042,0.015,0.053-0.019,0.059-0.024c0.043-0.43,0.071-0.849,0.071-1.294C32.36,17.311,30.241,13.829,27.086,11.88z"/>
					<path fill="#FFD400" d="M15.545,11.88c0.064-0.033,0.064,0.048,0.064,0.048l0,0c-0.005,1.306-0.177,8.501-5.198,10.701
						c-0.051,0.015-0.061-0.019-0.075-0.024c-0.048-0.43-0.076-0.849-0.076-1.294C10.26,17.311,12.383,13.829,15.545,11.88z"/>
					<path fill="#FFD400" d="M26.42,11.503c-1.44-0.754-3.061-1.192-4.776-1.238c-0.058,0-0.043,0.046-0.043,0.046l0,0
						c0,2.2,0.35,7.341,2.07,10.803c0.013,0.034,0.04,0.017,0.04,0.017c0.015,0,0.015-0.009,0.019-0.017
						c0.179-0.165,2.838-3.08,2.727-9.53C26.457,11.541,26.436,11.51,26.42,11.503z"/>
					<path fill="#FFD400" d="M16.217,11.503c1.434-0.754,3.058-1.192,4.766-1.238c0.043,0,0.043,0.046,0.043,0.046l0,0
						c0,2.2-0.347,7.341-2.063,10.803c-0.009,0.034-0.039,0.017-0.039,0.017c-0.02,0-0.032-0.009-0.032-0.017
						c-0.168-0.165-2.817-3.08-2.718-9.53C16.174,11.541,16.198,11.51,16.217,11.503z"/>
				</g>
			</g>
		</g>
		<rect x="42.972" y="1.567" fill="#0081C6" width="100.053" height="61.877"/>
	</g>
	<g>
		<g>
			<g>
				<path fill="#0083CA" d="M66.86,51.927c-0.428,0-0.913,0.195-1.44,0.397c-0.811,0.315-1.805,0.697-3.031,0.697
					c-3.691,0-6.093-2.848-6.093-7.235c0-4.434,2.402-7.41,5.959-7.41c1.052,0,1.943,0.278,2.713,0.534
					c0.604,0.183,1.099,0.339,1.535,0.339c0.645,0,1.195-0.639,1.195-1.377c0-1.201-2.253-2.559-5.479-2.559
					c-5.586,0-9.509,4.272-9.509,10.388c0,6.3,3.72,10.384,9.468,10.384c3.461,0,5.791-1.467,5.791-2.822
					C67.968,52.585,67.405,51.927,66.86,51.927z"/>
				<path fill="#0083CA" d="M90.65,23.867c-0.373-0.161-0.717-0.306-1.028-0.446c-1.628-0.669-2.702-1.116-2.702-2.253
					c0-0.833,0.585-1.673,1.905-1.673c0.737,0,1.506,0.336,2.168,0.639c0.552,0.24,1.113,0.488,1.535,0.488
					c0.667,0,1.121-0.442,1.121-1.119c0-1.21-1.85-2.502-4.606-2.502c-2.89,0-5.003,1.82-5.003,4.34c0,2.013,1.199,2.887,3.901,4.07
					c1.78,0.718,3.036,1.299,3.036,2.485c0,0.976-0.931,1.769-2.075,1.769c-0.857,0-1.634-0.362-2.389-0.726
					c-0.673-0.328-1.32-0.621-1.929-0.621c-0.624,0-0.951,0.673-0.951,1.327c0,1.56,2.081,2.687,4.923,2.687
					c3.155,0,5.44-1.938,5.44-4.611C93.997,26.072,93.089,25.016,90.65,23.867z"/>
				<path fill="#0083CA" d="M101.518,17.871h-1.243v-2.909c0-2.296-0.704-2.601-1.457-2.601c-0.732,0-1.517,0.205-1.517,2.601v2.892
					l-0.448,0.017c-2.069,0.04-2.343,0.67-2.343,1.292c0,0.888,0.935,1.194,1.806,1.194h0.985v9.164
					c0,2.396,0.784,2.594,1.517,2.594s1.457-0.198,1.457-2.594v-9.164h1.197c1.436,0,2.127-0.387,2.127-1.194
					C103.599,18.677,103.327,17.871,101.518,17.871z"/>
				<path fill="#0083CA" d="M68.434,11.996c-1.037,0-1.855,0.825-1.855,1.889c0,1.128,0.756,1.911,1.855,1.911
					c1.008,0,1.806-0.834,1.806-1.911C70.239,12.82,69.441,11.996,68.434,11.996z"/>
				<path fill="#0083CA" d="M68.434,17.476c-0.736,0-1.51,0.203-1.51,2.605v9.438c0,2.396,0.773,2.594,1.51,2.594
					c0.745,0,1.517-0.306,1.517-2.594v-9.438C69.95,17.773,69.133,17.476,68.434,17.476z"/>
				<path fill="#0083CA" d="M61.895,12.314h-5.42c-2.083,0-2.439,0.758-2.439,2.566v14.686c0,2.282,0.762,2.591,1.556,2.591
					c0.724,0,1.559-0.293,1.559-2.591v-6.148h4.18c2.284,0,2.587-0.69,2.587-1.377c0-0.689-0.294-1.465-2.587-1.465h-4.18v-5.414
					h4.744c2.247,0,2.564-0.683,2.564-1.414C64.459,13.087,64.164,12.314,61.895,12.314z"/>
				<path fill="#0083CA" d="M103.256,35.559c-1.053,0-1.866,0.836-1.866,1.907c0,1.089,0.779,1.888,1.866,1.888
					c1.019,0,1.811-0.825,1.811-1.888C105.066,36.395,104.274,35.559,103.256,35.559z"/>
				<path fill="#0083CA" d="M77.004,40.574h-0.216c-1.324,0-2.573-0.002-3.811,0.972l-0.016,0.023l-0.015,0.021l-0.018,0.005V36.96
					c0-2.603-1.135-2.603-1.506-2.603c-0.785,0-1.503,0.321-1.503,2.603v16.129c0,2.395,0.777,2.597,1.503,2.597
					c0.696,0,1.506-0.3,1.506-2.597v-5.383c0-2.954,1.074-4.39,3.257-4.39c2.903,0,3.296,2.126,3.296,4.438v5.335
					c0,2.274,0.754,2.597,1.563,2.597c0.746,0,1.438-0.322,1.438-2.597v-6.1C82.482,44.03,81.051,40.574,77.004,40.574z"/>
				<path fill="#0083CA" d="M132.33,51.701c-0.455,0-0.688,0.147-0.976,0.321c-0.091,0.069-0.183,0.124-0.321,0.191l-0.137,0.065
					c-0.848,0.451-2.003,1.047-3.416,0.999c-2.454-0.089-4.12-1.399-4.455-3.509c0,0-0.007-0.143-0.02-0.275h9.227
					c1.01,0,1.51-0.491,1.51-1.44c0-4.733-2.446-7.449-6.748-7.449c-4.005,0-7.018,3.3-7.018,7.667c0,4.329,3.109,7.581,7.237,7.581
					c3.838,0,6.178-1.842,6.178-3.165C133.392,52.122,132.954,51.701,132.33,51.701z M123.006,47.087
					c0.37-2.526,1.884-4.031,4.038-4.031c2.145,0,3.64,1.496,3.812,3.79c0,0,0.023,0.148,0.041,0.298h-7.891
					C123.006,47.108,123.006,47.087,123.006,47.087z"/>
				<path fill="#0083CA" d="M114.55,43.357c0.813,0,1.542,0.245,2.124,0.428c0.422,0.137,0.814,0.278,1.112,0.278
					c0.723,0,1.12-0.628,1.12-1.204c0-1.351-1.707-2.213-4.356-2.213c-4.3,0-7.182,3.05-7.182,7.579c0,4.57,2.762,7.627,6.876,7.627
					c2.928,0,4.662-1.208,4.662-2.379c0-0.598-0.327-1.203-1.035-1.203c-0.227,0-0.568,0.115-0.949,0.238l-0.046,0.005
					c-0.582,0.217-1.325,0.467-2.157,0.467c-2.589,0-4.208-1.861-4.208-4.827C110.511,45.325,112.173,43.357,114.55,43.357z"/>
				<path fill="#0083CA" d="M91.99,40.572c-4.088,0-7.049,3.213-7.049,7.653c0,4.544,2.898,7.72,7.049,7.72
					c4.132,0,7.019-3.176,7.019-7.72C99.009,43.711,96.122,40.572,91.99,40.572z M91.99,53.063c-2.309,0-3.869-1.955-3.869-4.879
					c0-2.818,1.587-4.773,3.869-4.773c2.28,0,3.874,1.955,3.874,4.773C95.864,51.052,94.271,53.063,91.99,53.063z"/>
				<path fill="#0083CA" d="M103.256,41.053c-0.731,0-1.515,0.193-1.515,2.591v9.445c0,2.395,0.783,2.597,1.515,2.597
					c0.74,0,1.514-0.312,1.514-2.597v-9.445C104.77,41.337,103.947,41.053,103.256,41.053z"/>
			</g>
			<g>
				<path fill="#FFFFFF" d="M66.86,51.927c-0.428,0-0.913,0.195-1.44,0.397c-0.811,0.315-1.805,0.697-3.031,0.697
					c-3.691,0-6.093-2.848-6.093-7.235c0-4.434,2.402-7.41,5.959-7.41c1.052,0,1.943,0.278,2.713,0.534
					c0.604,0.183,1.099,0.339,1.535,0.339c0.645,0,1.195-0.639,1.195-1.377c0-1.201-2.253-2.559-5.479-2.559
					c-5.586,0-9.509,4.272-9.509,10.388c0,6.3,3.72,10.384,9.468,10.384c3.461,0,5.791-1.467,5.791-2.822
					C67.968,52.585,67.405,51.927,66.86,51.927z"/>
				<path fill="#FFFFFF" d="M90.65,23.867c-0.373-0.161-0.717-0.306-1.028-0.446c-1.628-0.669-2.702-1.116-2.702-2.253
					c0-0.833,0.585-1.673,1.905-1.673c0.737,0,1.506,0.336,2.168,0.639c0.552,0.24,1.113,0.488,1.535,0.488
					c0.667,0,1.121-0.442,1.121-1.119c0-1.21-1.85-2.502-4.606-2.502c-2.89,0-5.003,1.82-5.003,4.34c0,2.013,1.199,2.887,3.901,4.07
					c1.78,0.718,3.036,1.299,3.036,2.485c0,0.976-0.931,1.769-2.075,1.769c-0.857,0-1.634-0.362-2.389-0.726
					c-0.673-0.328-1.32-0.621-1.929-0.621c-0.624,0-0.951,0.673-0.951,1.327c0,1.56,2.081,2.687,4.923,2.687
					c3.155,0,5.44-1.938,5.44-4.611C93.997,26.072,93.089,25.016,90.65,23.867z"/>
				<path fill="#FFFFFF" d="M101.518,17.871h-1.243v-2.909c0-2.296-0.704-2.601-1.457-2.601c-0.732,0-1.517,0.205-1.517,2.601v2.892
					l-0.448,0.017c-2.069,0.04-2.343,0.67-2.343,1.292c0,0.888,0.935,1.194,1.806,1.194h0.985v9.164
					c0,2.396,0.784,2.594,1.517,2.594s1.457-0.198,1.457-2.594v-9.164h1.197c1.436,0,2.127-0.387,2.127-1.194
					C103.599,18.677,103.327,17.871,101.518,17.871z"/>
				<path fill="#FFFFFF" d="M68.434,11.996c-1.037,0-1.855,0.825-1.855,1.889c0,1.128,0.756,1.911,1.855,1.911
					c1.008,0,1.806-0.834,1.806-1.911C70.239,12.82,69.441,11.996,68.434,11.996z"/>
				<path fill="#FFFFFF" d="M68.434,17.476c-0.736,0-1.51,0.203-1.51,2.605v9.438c0,2.396,0.773,2.594,1.51,2.594
					c0.745,0,1.517-0.306,1.517-2.594v-9.438C69.95,17.773,69.133,17.476,68.434,17.476z"/>
				<path fill="#FFFFFF" d="M61.895,12.314h-5.42c-2.083,0-2.439,0.758-2.439,2.566v14.686c0,2.282,0.762,2.591,1.556,2.591
					c0.724,0,1.559-0.293,1.559-2.591v-6.148h4.18c2.284,0,2.587-0.69,2.587-1.377c0-0.689-0.294-1.465-2.587-1.465h-4.18v-5.414
					h4.744c2.247,0,2.564-0.683,2.564-1.414C64.459,13.087,64.164,12.314,61.895,12.314z"/>
				<path fill="#FFFFFF" d="M103.256,35.559c-1.053,0-1.866,0.836-1.866,1.907c0,1.089,0.779,1.888,1.866,1.888
					c1.019,0,1.811-0.825,1.811-1.888C105.066,36.395,104.274,35.559,103.256,35.559z"/>
				<path fill="#FFFFFF" d="M77.004,40.574h-0.216c-1.324,0-2.573-0.002-3.811,0.972l-0.016,0.023l-0.015,0.021l-0.018,0.005V36.96
					c0-2.603-1.135-2.603-1.506-2.603c-0.785,0-1.503,0.321-1.503,2.603v16.129c0,2.395,0.777,2.597,1.503,2.597
					c0.696,0,1.506-0.3,1.506-2.597v-5.383c0-2.954,1.074-4.39,3.257-4.39c2.903,0,3.296,2.126,3.296,4.438v5.335
					c0,2.274,0.754,2.597,1.563,2.597c0.746,0,1.438-0.322,1.438-2.597v-6.1C82.482,44.03,81.051,40.574,77.004,40.574z"/>
				<path fill="#FFFFFF" d="M132.33,51.701c-0.455,0-0.688,0.147-0.976,0.321c-0.091,0.069-0.183,0.124-0.321,0.191l-0.137,0.065
					c-0.848,0.451-2.003,1.047-3.416,0.999c-2.454-0.089-4.12-1.399-4.455-3.509c0,0-0.007-0.143-0.02-0.275h9.227
					c1.01,0,1.51-0.491,1.51-1.44c0-4.733-2.446-7.449-6.748-7.449c-4.005,0-7.018,3.3-7.018,7.667c0,4.329,3.109,7.581,7.237,7.581
					c3.838,0,6.178-1.842,6.178-3.165C133.392,52.122,132.954,51.701,132.33,51.701z M123.006,47.087
					c0.37-2.526,1.884-4.031,4.038-4.031c2.145,0,3.64,1.496,3.812,3.79c0,0,0.023,0.148,0.041,0.298h-7.891
					C123.006,47.108,123.006,47.087,123.006,47.087z"/>
				<path fill="#FFFFFF" d="M114.55,43.357c0.813,0,1.542,0.245,2.124,0.428c0.422,0.137,0.814,0.278,1.112,0.278
					c0.723,0,1.12-0.628,1.12-1.204c0-1.351-1.707-2.213-4.356-2.213c-4.3,0-7.182,3.05-7.182,7.579c0,4.57,2.762,7.627,6.876,7.627
					c2.928,0,4.662-1.208,4.662-2.379c0-0.598-0.327-1.203-1.035-1.203c-0.227,0-0.568,0.115-0.949,0.238l-0.046,0.005
					c-0.582,0.217-1.325,0.467-2.157,0.467c-2.589,0-4.208-1.861-4.208-4.827C110.511,45.325,112.173,43.357,114.55,43.357z"/>
				<path fill="#FFFFFF" d="M91.99,40.572c-4.088,0-7.049,3.213-7.049,7.653c0,4.544,2.898,7.72,7.049,7.72
					c4.132,0,7.019-3.176,7.019-7.72C99.009,43.711,96.122,40.572,91.99,40.572z M91.99,53.063c-2.309,0-3.869-1.955-3.869-4.879
					c0-2.818,1.587-4.773,3.869-4.773c2.28,0,3.874,1.955,3.874,4.773C95.864,51.052,94.271,53.063,91.99,53.063z"/>
				<path fill="#FFFFFF" d="M103.256,41.053c-0.731,0-1.515,0.193-1.515,2.591v9.445c0,2.395,0.783,2.597,1.515,2.597
					c0.74,0,1.514-0.312,1.514-2.597v-9.445C104.77,41.337,103.947,41.053,103.256,41.053z"/>
			</g>
		</g>
		<path fill="#FFD200" d="M77.472,31.97c-0.02-0.015-0.613-0.122-0.922-1.024l0,0c-0.158-0.468-0.336-1.708-0.922-3.309l0,0
			c-0.585-1.597-1.498-5.071-3.136-5.188l0,0l-0.022-0.028l-0.01-0.021c-0.008-0.025-0.294-0.52-0.294-1.221l0,0
			c-0.013-0.603,0.263-1.124,0.846-1.291l0,0c0.269-0.086,0.553-0.139,0.808-0.139l0,0c1.004,0,1.873,1.94,3.326,4.418l-0.077,0.085
			c0.384-1.642,2.343-9.432,6.663-15.514l0,0c0.013-0.009,1.369-1.934,2.123-1.975l0,0c0.161-0.015,0.328,0.112,0.417,0.413l0,0
			c0.021,0.083,0.034,0.177,0.034,0.258l0,0c-0.034,0.632-0.38,1.286-0.912,2.47l0,0c-0.559,1.169-1.297,2.687-2.114,4.575l0,0
			c-1.629,3.785-3.575,9.001-4.77,15.44l0,0v0.021l-0.013,0.022c-0.007,0.017-0.317,2.092-0.974,2.001l0,0l-0.026,0.019
			L77.472,31.97L77.472,31.97z"/>
	</g>
	<path fill="#666666" d="M76.98,23.283c0-0.014,0-0.02,0-0.03c-0.288-0.493-0.534-0.948-0.794-1.342
		c0.17,0.269,0.327,0.564,0.506,0.864C76.788,22.944,76.878,23.102,76.98,23.283z M70.292,20.215v9.449
		c0,2.009-0.583,2.944-1.858,2.944c-0.544,0-0.958-0.154-1.258-0.468c0.3,0.732,0.808,1.078,1.61,1.078
		c1.282,0,1.86-0.941,1.86-2.963v-9.439c0-1.186-0.198-1.996-0.617-2.46C70.203,18.82,70.292,19.436,70.292,20.215z M100.626,17.652
		h0.364v-1.955c0-1.218-0.2-2.021-0.624-2.482c0.181,0.464,0.26,1.09,0.26,1.889V17.652z M87.625,21.911
		c0-0.613,0.42-1.325,1.561-1.325c0.677,0,1.4,0.318,2.032,0.606c0.572,0.254,1.164,0.526,1.681,0.526
		c0.857,0,1.468-0.599,1.468-1.469c0-0.079,0-0.15-0.023-0.238c-0.096-0.161-0.168-0.349-0.186-0.551
		c-0.058-0.148-0.16-0.288-0.278-0.427c0.088,0.203,0.126,0.418,0.126,0.62c0,0.864-0.607,1.47-1.477,1.47
		c-0.503,0-1.099-0.267-1.67-0.525c-0.639-0.288-1.354-0.606-2.033-0.606c-1.146,0-1.557,0.71-1.557,1.325
		c0,0.336,0.13,0.6,0.41,0.84C87.654,22.08,87.625,21.995,87.625,21.911z M64.813,13.875c0,1.229-0.905,1.787-2.918,1.787h-4.392
		v4.694h0.37v-4.101h4.368c2.021,0,2.921-0.542,2.921-1.776c0-0.467-0.141-0.84-0.429-1.125
		C64.787,13.515,64.813,13.685,64.813,13.875z M64.278,22.18c0,1.208-0.908,1.738-2.947,1.738h-3.828v5.786
		c0,2.021-0.615,2.962-1.912,2.962c-0.545,0-0.972-0.161-1.277-0.509c0.294,0.747,0.823,1.095,1.639,1.095
		c1.31,0,1.92-0.932,1.92-2.946v-5.792h3.815c2.042,0,2.953-0.531,2.953-1.735c0-0.475-0.138-0.864-0.437-1.153
		C64.25,21.795,64.278,21.984,64.278,22.18z M84.338,23.657c0.553,1.167,1.801,1.938,3.816,2.833
		c1.188,0.469,1.99,0.856,2.432,1.277c-0.18-0.716-1.082-1.208-2.796-1.886C86.153,25.153,84.992,24.513,84.338,23.657z
		 M57.011,46.531c0-4.215,2.253-7.059,5.607-7.059c0.98,0,1.853,0.278,2.605,0.518c0.612,0.185,1.149,0.367,1.637,0.367
		c0.853,0,1.558-0.798,1.558-1.742c0-0.36-0.153-0.743-0.45-1.086c0.052,0.171,0.091,0.323,0.091,0.493
		c0,0.94-0.714,1.729-1.557,1.729c-0.481,0-1.023-0.165-1.632-0.36c-0.763-0.243-1.623-0.515-2.616-0.515
		c-3.354,0-5.59,2.824-5.59,7.047c0,1.855,0.433,3.401,1.228,4.577C57.325,49.414,57.011,48.08,57.011,46.531z M127.4,44.161
		c1.145,0,2.102,0.484,2.709,1.295c-0.552-1.185-1.668-1.888-3.065-1.888c-1.856,0-3.19,1.238-3.625,3.345h0.52
		C124.481,45.173,125.728,44.161,127.4,44.161z M123.749,50.593h8.848c1.21,0,1.862-0.645,1.862-1.792
		c0-2.096-0.454-3.802-1.329-5.09c0.645,1.202,0.975,2.694,0.975,4.484c0,1.157-0.665,1.794-1.872,1.794h-8.833
		c0.106,0.576,0.333,1.084,0.659,1.517C123.925,51.221,123.825,50.915,123.749,50.593z M119.257,42.988
		c0,0.765-0.504,1.572-1.471,1.572c-0.358,0-0.774-0.139-1.222-0.3c-0.563-0.172-1.262-0.404-2.015-0.404
		c-2.162,0-3.676,1.825-3.676,4.43c0,1.275,0.308,2.329,0.864,3.074c-0.328-0.674-0.513-1.508-0.513-2.477
		c0-2.609,1.53-4.423,3.687-4.423c0.743,0,1.442,0.228,2.01,0.408c0.447,0.147,0.871,0.289,1.223,0.289
		c0.963,0,1.481-0.806,1.481-1.556c0-0.467-0.173-0.889-0.475-1.253C119.221,42.549,119.257,42.765,119.257,42.988z M88.837,48.93
		c0-2.616,1.452-4.43,3.526-4.43c1.082,0,1.979,0.511,2.606,1.377c-0.598-1.225-1.657-1.973-2.979-1.973
		c-2.057,0-3.514,1.823-3.514,4.426c0,1.29,0.334,2.372,0.905,3.158C89.028,50.784,88.837,49.911,88.837,48.93z M73.287,41.039
		c0.126-0.064,0.241-0.126,0.365-0.187V37.7c0-1.136-0.214-1.944-0.641-2.424c0.187,0.476,0.275,1.073,0.275,1.818V41.039z
		 M72.47,22.952l-0.119-0.014c0.038,0.098,0.078,0.215,0.119,0.315l0.054,0.075v0.007l0.114,0.204l0.192,0.011
		c0.409,0.026,0.774,0.35,1.1,0.829C73.511,23.594,73.025,22.988,72.47,22.952z M99.37,48.36c0,4.764-3.035,8.083-7.38,8.083
		c-2.595,0-4.722-1.18-6.015-3.126c1.238,2.305,3.528,3.728,6.388,3.728c4.329,0,7.371-3.321,7.371-8.072
		c0-1.918-0.515-3.595-1.39-4.909C98.994,45.279,99.37,46.735,99.37,48.36z M70.599,14.03c0,1.265-0.955,2.266-2.165,2.266
		c-0.707,0-1.297-0.302-1.7-0.776c0.32,0.828,1.093,1.371,2.053,1.371c1.228,0,2.172-0.989,2.172-2.253
		c0-0.57-0.192-1.083-0.524-1.479C70.545,13.424,70.599,13.724,70.599,14.03z M76.187,43.813c-1.238,0-2.899,0.417-2.899,4.023
		v5.389c0,2.015-0.579,2.957-1.863,2.957c-0.538,0-0.946-0.147-1.248-0.463c0.29,0.724,0.793,1.061,1.607,1.061
		c1.273,0,1.869-0.938,1.869-2.966v-5.365c0-3.612,1.664-4.032,2.897-4.032c1.062,0,1.749,0.296,2.192,0.828
		C78.347,44.326,77.589,43.813,76.187,43.813z M82.848,47.124v6.102c0,2.042-0.56,2.957-1.803,2.957
		c-0.565,0-0.992-0.163-1.288-0.497c0.292,0.742,0.827,1.095,1.642,1.095c1.249,0,1.809-0.917,1.809-2.966V47.73
		c0-1.541-0.374-3.202-1.257-4.501C82.569,44.422,82.848,45.816,82.848,47.124z M105.434,37.601c0,1.269-0.956,2.253-2.178,2.253
		c-0.706,0-1.308-0.285-1.703-0.761c0.323,0.825,1.084,1.362,2.053,1.362c1.214,0,2.186-0.997,2.186-2.262
		c0-0.558-0.212-1.064-0.523-1.464C105.367,36.999,105.434,37.288,105.434,37.601z M119.257,53.619c0,1.334-1.753,2.739-5.013,2.739
		c-2.542,0-4.598-1.118-5.853-3.011c1.205,2.253,3.41,3.606,6.221,3.606c3.252,0,5.014-1.406,5.014-2.73
		c0-0.5-0.173-0.906-0.447-1.188C119.221,53.211,119.257,53.408,119.257,53.619z M105.13,43.785v9.44
		c0,2.015-0.597,2.957-1.874,2.957c-0.543,0-0.957-0.156-1.247-0.463c0.282,0.724,0.807,1.061,1.597,1.061
		c1.285,0,1.879-0.938,1.879-2.966v-9.437c0-1.182-0.212-1.994-0.64-2.463C105.031,42.375,105.13,42.999,105.13,43.785z
		 M85.695,11.603l0.375-0.812l0.223-0.48c0.423-0.907,0.702-1.503,0.727-2.143c0-0.114-0.012-0.24-0.044-0.344
		c-0.06-0.269-0.196-0.437-0.348-0.536c0.011,0.088,0.042,0.188,0.042,0.289c-0.042,0.625-0.312,1.234-0.744,2.141l-0.211,0.477
		l-0.383,0.804c-0.49,1.022-1.091,2.287-1.734,3.776c-2.219,5.141-3.771,10.165-4.73,15.352v0.02l-0.021,0.047l-0.019,0.079
		c-0.197,1.01-0.519,2.15-1.217,2.194l-0.07,0.023L77.33,32.45c-0.273-0.093-0.504-0.271-0.71-0.495
		c0.238,0.55,0.609,0.94,1.076,1.09l0.209,0.035l0.053-0.012c0.717-0.035,1.038-1.189,1.233-2.189l0.007-0.088l0.021-0.052
		l0.009-0.021c0.956-5.177,2.512-10.208,4.739-15.34C84.618,13.885,85.218,12.614,85.695,11.603z M133.762,52.831
		c0,1.664-2.689,3.527-6.548,3.527c-2.64,0-4.888-1.281-6.233-3.295c1.296,2.358,3.7,3.891,6.579,3.891
		c3.873,0,6.565-1.859,6.565-3.526c0-0.387-0.161-0.717-0.427-0.964C133.737,52.574,133.762,52.7,133.762,52.831z M94.366,27.869
		c0,2.87-2.454,4.964-5.81,4.964c-2.188,0-3.932-0.656-4.761-1.664c0.552,1.343,2.534,2.263,5.113,2.263
		c3.363,0,5.804-2.086,5.804-4.969c0-0.817-0.203-1.499-0.662-2.121C94.254,26.8,94.366,27.309,94.366,27.869z M103.956,19.296
		c0,1.039-0.829,1.565-2.484,1.565h-0.846v8.802c0,2.099-0.524,2.944-1.809,2.944c-0.549,0-0.947-0.154-1.261-0.468
		c0.296,0.732,0.798,1.078,1.615,1.078c1.287,0,1.818-0.86,1.818-2.963v-8.793h0.852c1.632,0,2.484-0.537,2.484-1.571
		c0-0.245-0.076-0.67-0.428-1.026C103.936,19.032,103.956,19.188,103.956,19.296z M94.562,20.268
		c0.202,0.745,0.984,1.193,2.109,1.193h0.276v-0.6h-0.632C95.546,20.861,94.936,20.653,94.562,20.268z M68.328,53.396
		c0,1.531-2.351,3.183-6.151,3.183c-3.542,0-6.337-1.483-8.029-4.064c1.631,2.947,4.578,4.657,8.387,4.657
		c3.801,0,6.144-1.645,6.144-3.165c0-0.449-0.187-0.882-0.463-1.194C68.282,52.993,68.328,53.195,68.328,53.396z"/>
	<g>
		<path fill="#B2B2B2" d="M69.319,12.645c0.215,0.261,0.337,0.601,0.337,0.977c0,0.876-0.649,1.556-1.478,1.556
			c-0.353,0-0.669-0.09-0.907-0.264c0.268,0.372,0.694,0.582,1.222,0.582c0.826,0,1.472-0.683,1.472-1.55
			C69.965,13.387,69.723,12.922,69.319,12.645z M63.232,21.298c0.097,0.178,0.097,0.349,0.097,0.476c0,0.359,0,1.041-2.253,1.041
			h-4.519v6.488c0,2.262-0.825,2.262-1.212,2.262c-0.172,0-0.374,0-0.579-0.121c0.259,0.422,0.614,0.422,0.89,0.422
			c0.392,0,1.214,0,1.214-2.266v-6.481h4.523c2.247,0,2.247-0.668,2.247-1.028C63.64,21.88,63.64,21.561,63.232,21.298z
			 M63.763,13.025c0.09,0.162,0.096,0.329,0.096,0.457c0,0.391,0,1.076-2.216,1.076h-5.085v6.097h0.313v-5.781h5.08
			c2.213,0,2.213-0.682,2.213-1.093C64.164,13.583,64.164,13.26,63.763,13.025z M85.074,23.296c0.593,0.67,1.564,1.189,3.035,1.842
			c1.047,0.415,1.938,0.803,2.513,1.297c-0.536-0.649-1.56-1.104-2.822-1.612C86.584,24.283,85.68,23.817,85.074,23.296z
			 M69.007,17.975c0.188,0.308,0.352,0.863,0.352,1.838v9.436c0,2.261-0.767,2.261-1.18,2.261c-0.171,0-0.362-0.008-0.55-0.103
			c0.237,0.409,0.588,0.409,0.864,0.409c0.401,0,1.163,0,1.163-2.25v-9.45C69.656,18.677,69.333,18.16,69.007,17.975z
			 M122.73,47.083c0.389-2.705,2.031-4.323,4.373-4.323c1.1,0,2.024,0.352,2.752,0.993c-0.737-0.823-1.793-1.311-3.067-1.311
			c-2.333,0-3.962,1.627-4.364,4.334l-0.069,0.383l0.352,0.043L122.73,47.083z M87.851,48.226c0-3.02,1.712-5.127,4.2-5.127
			c1.017,0,1.907,0.358,2.604,0.99c-0.729-0.814-1.751-1.294-2.91-1.294c-2.499,0-4.213,2.104-4.213,5.126
			c0,1.849,0.599,3.322,1.612,4.241C88.327,51.243,87.851,49.888,87.851,48.226z M72.343,42.03l0.306-0.246v-4.785
			c0-1.428-0.349-1.955-0.66-2.15c0.19,0.319,0.354,0.873,0.354,1.844V42.03z M99.687,17.953h0.314v-2.947
			c0-1.491-0.313-1.999-0.631-2.172c0.18,0.319,0.316,0.884,0.316,1.854V17.953z M87.029,22.338
			c-0.25-0.316-0.391-0.665-0.391-1.135c0-0.96,0.699-2.016,2.231-2.016c0.838,0,1.626,0.354,2.328,0.662
			c0.476,0.232,1.035,0.473,1.394,0.473c0.476,0,0.773-0.299,0.773-0.771c0-0.364-0.222-0.748-0.611-1.077
			c0.191,0.241,0.302,0.499,0.302,0.763c0,0.482-0.287,0.776-0.772,0.776c-0.361,0-0.915-0.24-1.392-0.462
			c-0.697-0.317-1.496-0.666-2.322-0.666c-1.54,0-2.241,1.036-2.241,2.009C86.328,21.531,86.59,21.961,87.029,22.338z
			 M56.008,45.825c0-4.634,2.536-7.74,6.307-7.74c1.099,0,2.012,0.276,2.818,0.541c0.562,0.176,1.046,0.337,1.424,0.337
			c0.457,0,0.875-0.509,0.875-1.041c0-0.286-0.223-0.614-0.6-0.934c0.182,0.206,0.281,0.421,0.281,0.625
			c0,0.535-0.405,1.03-0.869,1.03c-0.377,0-0.869-0.152-1.414-0.324c-0.81-0.258-1.723-0.554-2.815-0.554
			c-3.776,0-6.318,3.126-6.318,7.751c0,2.637,0.843,4.742,2.276,6.048C56.733,50.241,56.008,48.26,56.008,45.825z M132.755,52.173
			c0.033,0.073,0.055,0.165,0.055,0.252c0,0.988-2.007,2.828-5.842,2.828c-1.85,0-3.485-0.693-4.691-1.845
			c1.239,1.345,2.989,2.153,4.997,2.153c3.833,0,5.845-1.847,5.845-2.822C133.118,52.477,132.979,52.271,132.755,52.173z
			 M118.208,52.72c0.102,0.2,0.109,0.415,0.109,0.491c0,0.986-1.656,2.042-4.319,2.042c-1.715,0-3.174-0.563-4.282-1.558
			c1.141,1.19,2.711,1.866,4.598,1.866c2.66,0,4.305-1.066,4.305-2.047C118.618,53.396,118.599,52.887,118.208,52.72z
			 M104.147,36.208c0.199,0.268,0.33,0.606,0.33,0.974c0,0.88-0.645,1.57-1.477,1.57c-0.346,0-0.666-0.103-0.901-0.276
			c0.268,0.361,0.695,0.583,1.201,0.583c0.831,0,1.488-0.683,1.488-1.558C104.789,36.96,104.533,36.493,104.147,36.208z
			 M98.425,47.963c0,4.349-2.746,7.375-6.68,7.375c-1.824,0-3.388-0.647-4.553-1.765c1.187,1.313,2.867,2.073,4.858,2.073
			c3.923,0,6.671-3.037,6.671-7.375c0-2.325-0.804-4.271-2.159-5.572C97.727,44,98.425,45.81,98.425,47.963z M103.822,41.534
			c0.207,0.312,0.342,0.863,0.342,1.838v9.45c0,2.25-0.748,2.25-1.163,2.25c-0.155,0-0.364,0-0.543-0.1
			c0.242,0.413,0.574,0.413,0.843,0.413c0.422,0,1.177,0,1.177-2.262v-9.441C104.478,42.243,104.147,41.724,103.822,41.534z
			 M131.494,42.549c1.081,1.221,1.658,2.982,1.658,5.242c0,0.765-0.343,1.093-1.171,1.093H122.4l0.023,0.369l0.009,0.268
			c0.185,1.066,0.646,1.943,1.351,2.587c-0.528-0.602-0.893-1.38-1.038-2.271l-0.015-0.28l-0.03-0.362h9.597
			c0.821,0,1.165-0.332,1.165-1.097C133.462,45.653,132.769,43.77,131.494,42.549z M118.06,41.885
			c0.166,0.21,0.258,0.44,0.258,0.703c0,0.348-0.212,0.862-0.773,0.862c-0.255,0-0.631-0.13-1.019-0.254
			c-0.607-0.197-1.365-0.44-2.221-0.44c-2.581,0-4.376,2.098-4.376,5.12c0,1.805,0.559,3.232,1.553,4.116
			c-0.806-0.903-1.253-2.189-1.253-3.808c0-3.022,1.805-5.129,4.384-5.129c0.849,0,1.605,0.252,2.218,0.456
			c0.381,0.126,0.774,0.258,1.017,0.258c0.565,0,0.771-0.525,0.771-0.868C118.618,42.508,118.424,42.158,118.06,41.885z
			 M94.981,19.516c0.267,0.516,1.186,0.557,1.401,0.557h1.013v-0.318h-1.326C95.913,19.754,95.352,19.739,94.981,19.516z
			 M81.9,46.72v6.103c0,2.25-0.697,2.25-1.104,2.25c-0.18,0-0.387,0-0.58-0.106c0.249,0.42,0.6,0.42,0.87,0.42
			c0.425,0,1.117,0,1.117-2.262v-6.098c0-1.764-0.538-3.71-1.878-4.914C81.444,43.32,81.9,45.098,81.9,46.72z M92.729,25.541
			c0.472,0.549,0.674,1.166,0.674,1.914c0,2.481-2.144,4.271-5.101,4.271c-1.699,0-3.131-0.43-3.904-1.102
			c0.676,0.85,2.266,1.408,4.224,1.408c2.946,0,5.095-1.795,5.095-4.264C93.717,26.875,93.433,26.171,92.729,25.541z
			 M102.907,18.516c0.058,0.106,0.105,0.229,0.105,0.384c0,0.223,0,0.854-1.779,0.854h-1.547v9.495c0,2.261-0.622,2.261-1.115,2.261
			c-0.178,0-0.375-0.008-0.564-0.096c0.241,0.402,0.585,0.411,0.852,0.411c0.512,0,1.143,0,1.143-2.259v-9.494h1.521
			c1.794,0,1.794-0.637,1.794-0.876C103.316,18.877,103.149,18.659,102.907,18.516z M67.176,52.405
			c0.134,0.151,0.19,0.362,0.19,0.588c0,1.013-1.936,2.477-5.431,2.477c-2.539,0-4.664-0.825-6.227-2.298
			c1.586,1.668,3.822,2.608,6.531,2.608c3.493,0,5.448-1.466,5.448-2.484C67.687,52.904,67.454,52.546,67.176,52.405z
			 M75.929,42.701c-2.387,0-3.586,1.59-3.586,4.735v5.386c0,2.25-0.794,2.25-1.171,2.25c-0.177,0-0.356,0-0.547-0.1
			c0.236,0.413,0.578,0.413,0.864,0.413c0.363,0,1.159,0,1.159-2.262v-5.37c0-3.147,1.219-4.733,3.589-4.733
			c1.093,0,1.866,0.278,2.394,0.749C78.093,43.111,77.251,42.701,75.929,42.701z"/>
	</g>
	<g>
		<path fill="#FFFFFF" d="M84.531,8.973c0.781-1.041,1.251-1.458,1.521-1.62c0-0.017,0.007-0.036,0.007-0.047
			c0-0.061-0.007-0.121-0.014-0.161c-0.029-0.1-0.065-0.146-0.065-0.152c-0.1,0.007-0.576,0.152-1.78,1.735
			c-0.022,0.029-0.039,0.063-0.063,0.082c-4.098,5.769-6.054,13.116-6.561,15.211l-0.149,0.661l0.271,0.465l0.209-0.865
			c0.501-2.12,2.475-9.47,6.569-15.232C84.492,9.026,84.515,8.999,84.531,8.973z"/>
		<path fill="#FFFFFF" d="M77.174,30.331c-0.142-0.627-0.363-1.566-0.759-2.698c-0.073-0.226-0.171-0.465-0.256-0.738
			c-0.563-1.637-1.271-3.78-2.485-4.473c1.017,0.875,1.653,2.757,2.148,4.239c0.086,0.266,0.176,0.516,0.248,0.716
			c0.406,1.142,0.622,2.09,0.779,2.72c0.055,0.261,0.104,0.47,0.144,0.6c0.135,0.394,0.373,0.678,0.644,0.789h0.009
			c-0.129-0.139-0.246-0.329-0.318-0.56C77.29,30.798,77.245,30.593,77.174,30.331z"/>
		<path fill="#FFFFFF" d="M74.481,20.263c-0.19-0.182-0.386-0.294-0.542-0.294c-0.219,0.006-0.44,0.055-0.722,0.138
			c-0.51,0.147-0.586,0.656-0.586,0.937c0.006,0.317,0.076,0.645,0.211,0.951c0.087,0.02,0.183,0.037,0.267,0.085
			c-0.098-0.263-0.147-0.52-0.147-0.797c0-0.289,0.079-0.789,0.603-0.94c0.269-0.079,0.491-0.127,0.707-0.127
			C74.336,20.215,74.406,20.244,74.481,20.263z"/>
	</g>
</g>
</svg>
